<svg xmlns="http://www.w3.org/2000/svg" width="677.393" height="664.333" viewBox="0 0 677.393 664.333"><defs><style>.a{fill:#1d1d1b;}.b{fill:#b81824;}.c{fill:#3c3c3b;}</style></defs><g transform="translate(-26.53 -37.53)"><path class="a" d="M703.923,369.694c0,183.449-151.645,332.169-338.7,332.169S26.53,553.143,26.53,369.694,178.169,37.53,365.223,37.53,703.923,186.244,703.923,369.694Z" transform="translate(0 0)"/><path class="b" d="M625.485,542.717c0,45.407-37.53,82.222-83.836,82.222s-83.83-36.815-83.83-82.222S495.35,460.5,541.65,460.5,625.485,497.309,625.485,542.717Z" transform="translate(-176.426 -173.023)"/><path class="c" d="M373.1,57.375c-87.169,0-169.119,33.287-230.759,93.74S46.773,291.946,46.773,377.4s33.943,165.875,95.572,226.327,143.6,93.728,230.759,93.728,169.113-33.287,230.748-93.728S699.435,462.909,699.435,377.4s-33.949-165.822-95.583-226.286S460.266,57.375,373.1,57.375Zm0,641.05c-87.458,0-169.639-33.388-231.457-94.018S45.78,463.163,45.78,377.4s34.044-166.348,95.861-226.977S285.669,56.4,373.1,56.4s169.6,33.394,231.451,94.023S700.422,291.656,700.422,377.4,666.39,543.778,604.555,604.408,460.538,698.425,373.1,698.425Z" transform="translate(-7.875 -7.719)"/><path class="c" d="M377.939,68.969c-85.337,0-165.526,32.608-225.819,91.736S58.593,298.464,58.593,382.152,91.839,544.5,152.126,603.622,292.6,695.346,377.939,695.346s165.52-32.6,225.807-91.725,93.533-137.776,93.533-221.47-33.246-162.323-93.533-221.446S463.264,68.969,377.939,68.969Zm0-.969c85.591,0,166.052,32.708,226.511,92.014s93.822,138.2,93.822,222.138S664.92,545,604.45,604.307s-140.914,92.008-226.511,92.008-166.052-32.7-226.517-92.008S57.6,466.106,57.6,382.152s33.329-162.826,93.822-222.138S292.342,68,377.939,68Z" transform="translate(-12.71 -12.464)"/><path class="c" d="M382.774,80.565c-83.5,0-161.916,31.91-220.873,89.727s-91.488,134.721-91.488,216.6S102.961,545.712,161.9,603.517s137.368,89.7,220.873,89.7S544.69,661.311,603.641,603.5,695.13,468.767,695.13,386.875,662.581,228.1,603.641,170.292,466.279,80.565,382.774,80.565Zm0-.975c83.759,0,162.442,32.023,221.57,90.011s91.807,135.152,91.807,217.292S663.5,546.214,604.368,604.2s-137.8,90.005-221.564,90.005S220.35,662.185,161.2,604.2,69.42,469.05,69.42,386.893,102.069,227.566,161.2,169.6,299.009,79.59,382.774,79.59Z" transform="translate(-17.545 -17.205)"/><path class="c" d="M387.609,92.155c-81.667,0-158.37,31.237-215.933,87.724S82.233,311.551,82.233,391.634s31.851,155.3,89.444,211.779,134.266,87.712,215.933,87.712,158.335-31.231,215.927-87.712S692.98,471.729,692.98,391.634,661.129,236.36,603.536,179.879,469.264,92.155,387.609,92.155Zm0-.975c81.921,0,158.849,31.319,216.624,88.008s89.739,132.1,89.739,212.446-31.958,155.8-89.739,212.464-134.7,88-216.624,88-158.861-31.319-216.636-88S81.24,471.989,81.24,391.634s31.952-155.782,89.733-212.446S305.682,91.18,387.609,91.18Z" transform="translate(-22.38 -21.946)"/><path class="c" d="M392.445,103.749c-79.829,0-154.748,30.557-210.993,85.721s-87.4,128.628-87.4,206.909,31.154,151.769,87.4,206.933S312.639,689,392.445,689s154.742-30.551,210.963-85.685,87.4-128.64,87.4-206.933-31.154-151.752-87.4-206.909S472.268,103.749,392.445,103.749Zm0-.969c80.089,0,155.256,30.652,211.684,86s87.695,129.06,87.695,207.6-31.26,152.278-87.695,207.642-131.595,85.993-211.684,85.993-155.268-30.675-211.7-85.993S93.06,474.932,93.06,396.379s31.284-152.236,87.689-207.6S312.349,102.78,392.445,102.78Z" transform="translate(-27.215 -26.692)"/><path class="c" d="M397.284,115.325c-78,0-151.155,29.866-206.052,83.712s-85.354,125.6-85.354,202.076S136.334,549.36,191.231,603.2s128.055,83.706,206.052,83.706S548.433,657.033,603.33,603.2s85.354-125.6,85.354-202.1S658.228,252.877,603.33,199.037,475.269,115.325,397.284,115.325Zm0-.975c78.251,0,151.663,29.972,206.744,84s85.65,126.011,85.65,202.755-30.563,148.75-85.65,202.773-128.487,83.989-206.744,83.989S245.6,657.908,190.528,603.885,104.89,477.868,104.89,401.112s30.551-148.732,85.638-202.755,128.5-84,206.756-84Z" transform="translate(-32.054 -31.425)"/><path class="c" d="M402.119,126.939c-76.159,0-147.55,29.186-201.112,81.708s-83.322,122.536-83.322,197.218,29.759,144.72,83.322,197.242,124.953,81.7,201.112,81.7,147.556-29.18,201.1-81.7,83.322-122.56,83.322-197.242-29.759-144.7-83.322-197.218S478.267,126.939,402.119,126.939Zm0-.969c76.419,0,148.07,29.287,201.8,81.992s83.6,122.961,83.6,197.9-29.86,145.228-83.6,197.927-125.39,81.986-201.8,81.986S254.043,656.492,200.3,603.793,116.71,480.819,116.71,405.865s29.86-145.2,83.593-197.9,125.39-81.974,201.815-81.974Z" transform="translate(-36.89 -36.178)"/><path class="c" d="M406.954,138.529c-74.322,0-143.969,28.5-196.19,79.705s-81.247,119.493-81.247,192.372S158.579,551.8,210.782,603s121.845,79.7,196.19,79.7S550.935,654.2,603.162,603s81.224-119.487,81.224-192.4S655.329,269.433,603.12,218.234,481.27,138.529,406.954,138.529Zm0-.969c74.582,0,144.471,28.6,196.864,79.989s81.549,119.918,81.549,193.058-29.163,141.7-81.549,193.081-122.276,79.977-196.864,79.977-144.483-28.6-196.875-79.977S128.53,483.729,128.53,410.607s29.163-141.682,81.549-193.058S332.367,137.56,406.954,137.56Z" transform="translate(-41.725 -40.919)"/><path class="c" d="M411.789,150.125c-72.49,0-140.37,27.815-191.232,77.7S141.325,344.27,141.325,415.348,169.69,553.035,220.51,602.892s118.778,77.7,191.279,77.7,140.364-27.815,191.226-77.69S682.2,486.443,682.2,415.354,653.836,277.7,603.015,227.827,484.267,150.125,411.789,150.125Zm0-.975c72.75,0,140.878,27.922,191.923,78s79.5,116.851,79.5,188.195S654.745,553.526,603.7,603.584s-119.162,77.974-191.911,77.974S270.9,653.642,219.854,603.584s-79.5-116.881-79.5-188.236,28.465-138.154,79.5-188.212S339.034,149.15,411.789,149.15Z" transform="translate(-46.56 -45.66)"/><path class="c" d="M416.624,161.719c-70.652,0-136.777,27.13-186.292,75.693s-77.17,113.4-77.17,182.681,27.662,134.142,77.17,182.7,115.634,75.687,186.292,75.687S553.4,651.372,602.91,602.792s77.17-113.406,77.17-182.7-27.662-134.142-77.17-182.681S487.27,161.719,416.624,161.719Zm0-.969c70.912,0,137.286,27.23,186.983,75.976s77.465,113.826,77.465,183.367-27.774,134.65-77.465,183.39-116.065,75.97-186.983,75.97-137.3-27.236-186.995-75.947-77.46-113.861-77.46-183.414,27.774-134.632,77.46-183.367S345.707,160.75,416.624,160.75Z" transform="translate(-51.395 -50.405)"/><path class="c" d="M421.464,173.321c-68.82,0-133.185,26.45-181.352,73.689s-75.125,110.345-75.125,177.824,26.964,130.6,75.125,177.871,112.531,73.684,181.352,73.684S554.642,649.944,602.809,602.7s75.125-110.363,75.125-177.871S650.97,294.238,602.809,247,490.272,173.321,421.464,173.321Zm0-.969c69.08,0,133.693,26.551,182.043,73.973S678.927,357.1,678.927,424.834s-27.071,131.128-75.421,178.545S490.544,677.34,421.464,677.34s-133.7-26.545-182.055-73.961S164,492.584,164,424.834s27.071-131.1,75.415-178.521S352.378,172.34,421.464,172.34Z" transform="translate(-56.234 -55.146)"/><path class="c" d="M426.295,184.905c-66.982,0-129.592,25.765-176.411,71.68S176.8,363.9,176.8,429.575s26.267,127.092,73.081,173.008,109.429,71.674,176.411,71.674S555.892,648.5,602.7,602.583s73.081-107.319,73.081-173.008S649.514,302.524,602.7,256.585,493.253,184.905,426.295,184.905Zm0-.975c67.242,0,130.1,25.871,177.1,71.97s73.376,107.715,73.376,173.675-26.373,127.6-73.376,173.7-109.86,71.958-177.1,71.958-130.112-25.865-177.1-71.958-73.388-107.745-73.388-173.7S202.183,301.993,249.2,255.9s109.849-71.97,177.1-71.97Z" transform="translate(-61.065 -59.887)"/><path class="c" d="M431.13,196.5c-65.144,0-126,25.079-171.471,69.677S188.623,370.44,188.623,434.32s25.57,123.57,71.036,168.162S365.98,672.153,431.13,672.153s125.993-25.073,171.459-69.671,71.042-104.27,71.042-168.162S648.061,310.768,602.6,266.176,496.268,196.5,431.13,196.5Zm0-.969c65.41,0,126.507,25.18,172.162,69.961s71.332,104.69,71.332,168.83S648.948,558.4,603.275,603.168s-106.752,69.961-172.162,69.961-126.519-25.186-172.168-69.961S187.63,498.472,187.63,434.32s25.676-124.061,71.326-168.83S365.72,195.53,431.13,195.53Z" transform="translate(-65.901 -64.633)"/><path class="c" d="M435.965,208.089c-63.313,0-122.406,24.4-166.531,67.674s-68.991,101.221-68.991,163.3S225.315,559.1,269.434,602.383s103.218,67.662,166.531,67.662,122.4-24.394,166.519-67.662,69-101.227,69-163.316-24.872-120.03-68.991-163.3S499.266,208.089,435.965,208.089Zm0-.969c63.573,0,122.914,24.5,167.234,67.957s69.287,101.641,69.287,163.984-24.979,120.55-69.287,164S499.55,671.02,435.965,671.02s-122.914-24.494-167.234-67.957-69.281-101.641-69.281-164,24.973-120.55,69.275-163.984S372.387,207.12,435.965,207.12Z" transform="translate(-70.736 -69.374)"/><path class="c" d="M440.8,219.685c-61.457,0-118.813,23.708-161.591,65.664S212.3,383.527,212.3,443.8s24.146,116.52,66.917,158.471S379.33,667.932,440.8,667.932a229.532,229.532,0,0,0,161.579-65.659c42.8-41.95,66.953-98.184,66.953-158.471S645.161,327.3,602.389,285.35,502.273,219.685,440.8,219.685Zm0-.975c61.741,0,119.321,23.815,162.282,65.954s67.236,98.6,67.236,159.138-24.281,117.028-67.236,159.186S502.545,668.936,440.8,668.936a230.618,230.618,0,0,1-162.288-65.948c-42.955-42.1-67.236-98.633-67.236-159.186s24.276-117,67.236-159.138S379.064,218.71,440.8,218.71Z" transform="translate(-75.575 -74.115)"/><path class="c" d="M445.64,231.309A222.564,222.564,0,0,0,288.989,294.97c-41.419,40.615-64.9,95.14-64.9,153.607s23.472,112.992,64.9,153.643S386,665.828,445.64,665.828a222.535,222.535,0,0,0,156.639-63.655c41.407-40.609,64.908-95.14,64.908-153.643s-23.478-112.957-64.9-153.589S505.271,231.309,445.64,231.309Zm0-.969a223.483,223.483,0,0,1,157.342,63.945c41.613,40.816,65.192,95.554,65.192,154.293s-23.584,113.471-65.162,154.281a225.533,225.533,0,0,1-314.719,0c-41.608-40.81-65.192-95.583-65.192-154.31s23.578-113.459,65.192-154.293S385.731,230.31,445.64,230.31Z" transform="translate(-80.41 -78.86)"/><path class="c" d="M450.475,242.875a215.5,215.5,0,0,0-151.71,61.652c-40.083,39.315-62.852,92.085-62.852,148.762s22.775,109.47,62.875,148.779a217.443,217.443,0,0,0,303.385,0c40.083-39.309,62.858-92.091,62.858-148.779s-22.775-109.453-62.852-148.762A215.51,215.51,0,0,0,450.475,242.875Zm0-.975a216.529,216.529,0,0,1,152.4,61.942c40.266,39.486,63.147,92.5,63.147,149.447s-22.887,109.979-63.147,149.465a218.478,218.478,0,0,1-304.809,0c-40.266-39.48-63.147-92.511-63.147-149.465S257.8,343.328,298.067,303.842A216.533,216.533,0,0,1,450.475,241.9Z" transform="translate(-85.245 -83.601)"/><path class="c" d="M455.31,254.465a208.52,208.52,0,0,0-146.77,59.649C269.8,352.1,247.733,403.156,247.733,458.03S269.81,563.972,308.54,601.963a210.365,210.365,0,0,0,293.5,0c38.712-37.991,60.866-89.048,60.866-143.934S640.833,352.1,602.1,314.114A208.575,208.575,0,0,0,455.31,254.465Zm0-.975a209.489,209.489,0,0,1,147.461,59.938c38.919,38.174,61.1,89.461,61.1,144.6s-22.19,106.451-61.1,144.619a211.385,211.385,0,0,1-294.929,0c-38.919-38.168-61.1-89.438-61.1-144.619s22.184-106.433,61.1-144.6A209.518,209.518,0,0,1,455.31,253.49Z" transform="translate(-90.081 -88.342)"/><path class="c" d="M460.145,266.059A201.49,201.49,0,0,0,318.321,323.7c-37.388,36.673-58.768,85.993-58.768,139.07s21.38,102.421,58.768,139.094a203.293,203.293,0,0,0,283.642,0c37.388-36.638,58.768-86,58.768-139.088S639.381,360.372,601.963,323.7A201.564,201.564,0,0,0,460.145,266.059Zm0-.969A202.616,202.616,0,0,1,602.666,323c37.572,36.833,59.058,86.412,59.058,139.756S640.232,565.7,602.666,602.548a204.337,204.337,0,0,1-285.048,0c-37.572-36.833-59.058-86.424-59.058-139.773s21.486-102.911,59.058-139.756A202.533,202.533,0,0,1,460.145,265.09Z" transform="translate(-94.916 -93.087)"/><path class="c" d="M464.98,277.655a194.53,194.53,0,0,0-136.89,55.636c-36.047,35.35-56.73,82.949-56.73,134.225s20.683,98.893,56.73,134.242a196.2,196.2,0,0,0,273.762,0c36.041-35.35,56.729-82.955,56.729-134.242S637.9,368.635,601.852,333.291A194.524,194.524,0,0,0,464.98,277.655Zm0-.975a195.489,195.489,0,0,1,137.581,55.926c36.224,35.533,57.019,83.369,57.019,134.91s-20.8,99.4-57.019,134.957a197.214,197.214,0,0,1-275.168,0c-36.224-35.5-57.013-83.375-57.013-134.928s20.789-99.383,57.013-134.91A195.545,195.545,0,0,1,464.98,276.68Z" transform="translate(-99.751 -97.828)"/><path class="c" d="M469.824,289.245a187.54,187.54,0,0,0-131.949,53.633C303.174,376.9,283.2,422.784,283.2,472.257s19.985,95.371,54.679,129.414a189.129,189.129,0,0,0,263.9-.018c34.717-34.026,54.679-79.912,54.679-129.414S636.455,376.9,601.785,342.878A187.537,187.537,0,0,0,469.824,289.245Zm0-.975a188.509,188.509,0,0,1,132.641,53.923c34.877,34.209,54.957,80.326,54.957,130.064s-20.092,95.879-54.957,130.082a190.113,190.113,0,0,1-265.288.006c-34.877-34.2-54.957-80.331-54.957-130.082S302.312,376.4,337.177,342.2A188.523,188.523,0,0,1,469.824,288.27Z" transform="translate(-104.594 -102.569)"/><path class="c" d="M474.642,300.839a180.485,180.485,0,0,0-127.009,51.63C314.281,385.189,295,429.326,295,477s19.288,91.819,52.634,124.551a182.029,182.029,0,0,0,254,0c33.346-32.714,52.634-76.863,52.634-124.551s-19.306-91.831-52.634-124.533A180.47,180.47,0,0,0,474.642,300.839Zm0-.969a181.514,181.514,0,0,1,127.7,51.914c33.53,32.885,52.918,77.276,52.918,125.219s-19.394,92.351-52.918,125.236a183.043,183.043,0,0,1-255.407,0C313.406,569.353,294,524.956,294,477s19.394-92.339,52.918-125.219A181.574,181.574,0,0,1,474.642,299.87Z" transform="translate(-109.413 -107.315)"/><path class="c" d="M479.49,312.435a173.49,173.49,0,0,0-122.069,49.638c-32,31.4-50.584,73.8-50.584,119.67s18.6,88.321,50.59,119.705a174.891,174.891,0,0,0,244.12,0c32-31.4,50.59-73.819,50.59-119.705s-18.591-88.3-50.59-119.688A173.522,173.522,0,0,0,479.49,312.435Zm0-.975a174.407,174.407,0,0,1,122.76,49.91c32.182,31.591,50.873,74.233,50.873,120.373s-18.7,88.829-50.873,120.391a175.95,175.95,0,0,1-245.527,0C324.541,570.549,305.85,527.9,305.85,481.743s18.7-88.811,50.873-120.373A174.527,174.527,0,0,1,479.49,311.46Z" transform="translate(-114.261 -112.056)"/><path class="c" d="M484.325,324.025A166.534,166.534,0,0,0,367.2,371.642c-30.658,30.067-48.533,70.747-48.533,114.842S336.55,571.277,367.2,601.35a167.843,167.843,0,0,0,234.24,0,160.111,160.111,0,0,0,48.527-114.866c0-44.084-17.893-84.781-48.545-114.842A166.489,166.489,0,0,0,484.325,324.025Zm0-.975a167.518,167.518,0,0,1,117.82,47.907c30.835,30.244,48.829,71.19,48.829,115.527A161.112,161.112,0,0,1,602.145,602.03a168.857,168.857,0,0,1-235.646,0A161.1,161.1,0,0,1,317.67,486.484c0-44.35,18-85.289,48.829-115.527A167.537,167.537,0,0,1,484.325,323.05Z" transform="translate(-119.096 -116.797)"/><path class="c" d="M489.16,335.619a159.552,159.552,0,0,0-112.183,45.614,153.375,153.375,0,0,0,0,220,160.734,160.734,0,0,0,224.36,0,153.375,153.375,0,0,0,0-220A159.552,159.552,0,0,0,489.16,335.619Zm0-.969a160.509,160.509,0,0,1,112.868,45.9,154.387,154.387,0,0,1,.012,221.411,161.78,161.78,0,0,1-225.737,0C346.793,573,329.49,533.782,329.49,491.229a154.343,154.343,0,0,1,46.784-110.682A160.509,160.509,0,0,1,489.16,334.649Z" transform="translate(-123.931 -121.541)"/><path class="c" d="M494,347.215a152.508,152.508,0,0,0-107.243,43.6,146.646,146.646,0,0,0,.006,210.337,153.643,153.643,0,0,0,214.509,0,146.639,146.639,0,0,0,0-210.337A152.5,152.5,0,0,0,494,347.215Zm0-.975a153.518,153.518,0,0,1,107.94,43.895,147.567,147.567,0,0,1-.006,211.69,154.677,154.677,0,0,1-215.88,0,147.574,147.574,0,0,1,0-211.69A153.519,153.519,0,0,1,494,346.239Z" transform="translate(-128.766 -126.282)"/><path class="c" d="M498.839,358.809a145.529,145.529,0,0,0-102.3,41.6,139.847,139.847,0,0,0,0,200.622,146.551,146.551,0,0,0,204.6,0,139.846,139.846,0,0,0,0-200.622A145.523,145.523,0,0,0,498.839,358.809Zm0-.969a146.551,146.551,0,0,1,103.006,41.885,140.81,140.81,0,0,1,0,202,147.58,147.58,0,0,1-206,0,140.8,140.8,0,0,1,0-201.993A146.551,146.551,0,0,1,498.839,357.84Z" transform="translate(-133.609 -131.028)"/><path class="c" d="M503.686,370.4a138.509,138.509,0,0,0-97.362,39.593,133.082,133.082,0,0,0,0,190.93,139.46,139.46,0,0,0,194.718,0,133.076,133.076,0,0,0,0-190.925A138.509,138.509,0,0,0,503.686,370.4Zm0-.969a139.513,139.513,0,0,1,98.059,39.882,134.039,134.039,0,0,1-.006,192.307,140.494,140.494,0,0,1-196.113,0,134.073,134.073,0,0,1,.024-192.307,139.52,139.52,0,0,1,98.036-39.882Z" transform="translate(-138.457 -135.769)"/><path class="c" d="M508.5,381.987a131.524,131.524,0,0,0-92.422,37.589,126.332,126.332,0,0,0,0,181.251,132.369,132.369,0,0,0,184.838,0,126.332,126.332,0,0,0,0-181.251A131.53,131.53,0,0,0,508.5,381.987Zm0-.975a132.541,132.541,0,0,1,93.119,37.879,127.268,127.268,0,0,1-.006,182.61,133.391,133.391,0,0,1-186.233,0,127.281,127.281,0,0,1-.006-182.61A132.546,132.546,0,0,1,508.5,381Z" transform="translate(-143.276 -140.502)"/><path class="c" d="M513.34,393.589a124.551,124.551,0,0,0-87.458,35.586,119.554,119.554,0,0,0,0,171.548,125.313,125.313,0,0,0,174.958,0,119.554,119.554,0,0,0,0-171.548,124.551,124.551,0,0,0-87.5-35.586Zm0-.969a125.52,125.52,0,0,1,88.179,35.87,120.517,120.517,0,0,1-.006,172.919,126.3,126.3,0,0,1-176.352,0,120.517,120.517,0,0,1-.006-172.919A125.532,125.532,0,0,1,513.34,392.62Z" transform="translate(-148.111 -145.255)"/><path class="c" d="M518.2,405.179a117.513,117.513,0,0,0-82.548,33.589,112.831,112.831,0,0,0,0,161.88,118.222,118.222,0,0,0,165.077,0,112.825,112.825,0,0,0,0-161.886A117.531,117.531,0,0,0,518.2,405.179Zm0-.969a118.541,118.541,0,0,1,83.239,33.866,113.719,113.719,0,0,1,.024,163.228,119.221,119.221,0,0,1-166.472,0,113.786,113.786,0,0,1-.036-163.228A118.541,118.541,0,0,1,518.2,404.21Z" transform="translate(-152.966 -149.996)"/><path class="c" d="M523.01,416.775c-60.535,0-109.778,48.291-109.778,107.656S462.475,632.093,523.01,632.093s109.772-48.3,109.772-107.662S583.54,416.775,523.01,416.775Zm0,216.281c-61.079,0-110.77-48.734-110.77-108.631S461.932,415.8,523.01,415.8s110.765,48.734,110.765,108.631S584.089,633.063,523.01,633.063Z" transform="translate(-157.781 -154.738)"/><path class="a" d="M609.852,577.2c0,17.893-14.773,32.4-33.039,32.4s-33.033-14.507-33.033-32.4,14.773-32.4,33.033-32.4S609.852,559.3,609.852,577.2Z" transform="translate(-211.59 -207.507)"/></g></svg>