<svg xmlns="http://www.w3.org/2000/svg" xmlns:xlink="http://www.w3.org/1999/xlink" width="485.28" height="650.858" viewBox="0 0 485.28 650.858"><defs><style>.a{fill:#29235c;}.b{fill:#e30613;}.c{clip-path:url(#a);}.d{fill:none;stroke:#fff;stroke-miterlimit:10;}.e{clip-path:url(#b);}.f{clip-path:url(#c);}.g{clip-path:url(#d);}.h{clip-path:url(#e);}.i{clip-path:url(#f);}</style><clipPath id="a"><path d="M65.6,158.434l-8.993,3.6-10.072,4.676,21.582,19.784,27.7-40.287S114.878,38.652,113.8,37.933,91.138,5.56,91.138,5.56L72.793,5.2,39.7,18.149l1.439,17.266,12.59-3.957,26.258,109.71Z" transform="translate(-39.7 -5.2)"/></clipPath><clipPath id="b"><path d="M77.479,154.255l-8.273,1.8-12.23,2.878,23.74,24.46,27.7-40.287S127.478,35.552,126.4,34.833,103.738,2.46,103.738,2.46L85.393,2.1,52.3,15.049l1.439,17.266,12.949-2.158L92.227,138.068Z" transform="translate(-52.3 -2.1)"/></clipPath><clipPath id="c"><path d="M90.039,153.514l-8.273.719-15.467.719-.36,17.985L88.96,184.449,120.614,142S139.678,34.452,138.6,33.733,115.938,1.36,115.938,1.36L97.593,1,64.5,13.949l1.439,15.827,12.59-.36,25.9,107.192Z" transform="translate(-64.5 -1)"/></clipPath><clipPath id="d"><path d="M104.576,153.914l-9.352,3.237L75.8,154.274l4.676,19.064,23.021,11.51L135.511,142.4S154.575,34.852,153.5,34.133,130.835,1.76,130.835,1.76L112.49,1.4,79.4,14.349l1.079,15.108,17.266,1.8,17.625,105.034Z" transform="translate(-75.8 -1.4)"/></clipPath><clipPath id="e"><path d="M128.4,156.314l-20.863,5.036-13.309-4.676L85.6,174.3l42.085,12.949L158.98,144.8S178.044,37.252,176.965,36.533,154.3,4.16,154.3,4.16L135.959,3.8,102.866,16.749l1.8,14.388,20.5,5.4,13.669,102.156Z" transform="translate(-85.6 -3.8)"/></clipPath><clipPath id="f"><path d="M128.373,150.722l-24.1,12.949-5.4-2.878L96,177.7l42.085,12.949L169.739,148.2S188.8,40.652,187.724,39.933,165.063,7.56,165.063,7.56L146.718,7.2,113.625,20.149,122.618,36.7l19.424,8.633-2.518,83.451Z" transform="translate(-96 -7.2)"/></clipPath></defs><g transform="translate(141.369 659.449) rotate(-107)"><path class="a" d="M491.066,280.317C480.994,129.6,351.141,15.575,200.425,25.647A273.237,273.237,0,0,0,12.3,118.451h0L27.767,131.76h0C119.492,26.366,278.841,15.575,384.234,106.94a252.719,252.719,0,0,1,86.329,174.1c.36,5.4.719,11.151.719,16.546l20.5-1.439C491.425,291.108,491.425,285.713,491.066,280.317Z" transform="translate(31.944 62.401)"/><path class="b" d="M472.343,274.423C462.631,130.542,338.174,21.552,194.292,30.9A261.822,261.822,0,0,0,14.8,119.751h0l13.669,11.87h0C116.956,30.544,270.549,20.113,371.626,108.6a243.478,243.478,0,0,1,82.732,166.9c.36,5.755.719,11.151.719,16.546l18.345-1.079C473.063,285.574,473.063,280.179,472.343,274.423Z" transform="translate(38.436 76.209)"/><path class="a" d="M454.24,268.131C444.888,130.724,325.826,26.77,188.419,36.122A248.3,248.3,0,0,0,17.2,121.012h0l11.87,10.431h0c84.89-97.12,232.369-107.192,329.489-22.3A233.989,233.989,0,0,1,438.053,269.21a127.093,127.093,0,0,1,.36,16.546l15.827-1.079A126.976,126.976,0,0,0,454.24,268.131Z" transform="translate(44.669 89.695)"/><path class="b" d="M435.877,261.626c-8.633-130.932-121.94-230.21-252.872-221.218A239.229,239.229,0,0,0,19.7,121.342h0l10.431,8.993h0c81.293-93.163,223.016-102.516,316.18-21.223a224.179,224.179,0,0,1,75.9,153.594,127.094,127.094,0,0,1,.36,16.546l13.669-1.079A125.683,125.683,0,0,0,435.877,261.626Z" transform="translate(51.162 100.876)"/><path class="a" d="M579.123,317.55C566.893,135.54,409.7-2.586,227.333,9.644A330.5,330.5,0,0,0,0,121.872H0l18.7,16.187h0C129.853,10.723,323.014-2.226,450.349,108.922A306.538,306.538,0,0,1,554.3,318.989c.36,6.834.719,13.309.719,20.143l24.46-1.8A181.54,181.54,0,0,0,579.123,317.55Z" transform="translate(0 20.492)"/><path class="b" d="M556.944,308.1C545.433,134.006,394.717,1.994,220.621,13.5A317.726,317.726,0,0,0,3,121.416H3L19.546,135.8h0c106.832-122.3,292.8-134.889,415.1-27.7a295.948,295.948,0,0,1,100,201.794c.36,6.834.719,13.309.719,20.143l21.942-1.439A195,195,0,0,0,556.944,308.1Z" transform="translate(7.791 30.66)"/><path class="a" d="M534.5,298.754C523.354,132.571,379.832,6.675,213.649,17.466A302.6,302.6,0,0,0,6.1,120.341h0l14.388,12.59h0C123.363,15.307,301.776,3.437,419.4,106.312a282,282,0,0,1,95.681,193.521c.36,6.834.719,13.309.719,20.143l19.064-1.439A183.215,183.215,0,0,0,534.5,298.754Z" transform="translate(15.842 41.087)"/><path class="b" d="M512.326,289.206C501.894,130.936,364.847,10.8,206.577,21.586,130.32,26.622,59.1,61.513,9.1,119.066h0l12.59,10.791h0C120.248,17.27,291.467,5.759,404.055,104.318a271.972,271.972,0,0,1,92.084,185.967c.36,6.834.719,13.309.719,20.143l16.547-1.079C513.045,302.515,512.685,295.681,512.326,289.206Z" transform="translate(23.633 51.714)"/><g transform="translate(142.802 16.108)"><g class="c"><ellipse class="d" cx="28.776" cy="82.372" rx="28.776" ry="82.372" transform="translate(-3.597 6.115)"/></g></g><g transform="translate(188.125 4.957)"><g class="e"><ellipse class="d" cx="28.776" cy="82.372" rx="28.776" ry="82.372" transform="translate(-3.597 5.755)"/></g></g><g transform="translate(232.009 1)"><g class="f"><ellipse class="d" cx="81.653" cy="28.417" rx="81.653" ry="28.417" transform="translate(-7.733 169.189) rotate(-87.17)"/></g></g><g transform="translate(272.655 2.439)"><g class="g"><ellipse class="d" cx="79.135" cy="27.697" rx="79.135" ry="27.697" transform="translate(-13.881 165.177) rotate(-80.729)"/></g></g><g transform="translate(307.906 11.072)"><g class="h"><ellipse class="d" cx="77.336" cy="26.978" rx="77.336" ry="26.978" transform="matrix(0.209, -0.978, 0.978, 0.209, -3.151, 163.49)"/></g></g><g transform="translate(345.316 23.302)"><g class="i"><ellipse class="d" cx="77.336" cy="26.978" rx="77.336" ry="26.978" transform="matrix(0.347, -0.938, 0.938, 0.347, -12.527, 161.388)"/></g></g></g></svg>