<svg xmlns="http://www.w3.org/2000/svg" width="502.854" height="493.159" viewBox="0 0 502.854 493.159"><defs><style>.a{fill:#1d1d1b;}.b{fill:#b81824;}.c{fill:#3c3c3b;}</style></defs><g transform="translate(-26.53 -37.53)"><path class="a" d="M529.384,284.107c0,136.181-112.572,246.582-251.429,246.582S26.53,420.289,26.53,284.107,139.1,37.53,277.955,37.53,529.384,147.926,529.384,284.107Z" transform="translate(0)"/><path class="b" d="M582.284,521.532c0,33.708-27.86,61.037-62.234,61.037s-62.23-27.329-62.23-61.037S485.68,460.5,520.05,460.5,582.284,487.825,582.284,521.532Z" transform="translate(-242.095 -237.425)"/><path class="c" d="M288.765,57.124c-64.708,0-125.543,24.71-171.3,69.587S46.517,231.255,46.517,294.691s25.2,123.135,70.946,168.011,106.6,69.578,171.3,69.578S414.3,507.57,460.057,462.7s70.955-104.535,70.955-168.011-25.2-123.1-70.955-167.981S353.469,57.124,288.765,57.124Zm0,475.876c-64.923,0-125.93-24.785-171.819-69.793S45.78,358.355,45.78,294.691,71.052,171.2,116.941,126.2,223.859,56.4,288.765,56.4s125.9,24.789,171.815,69.8,71.166,104.843,71.166,168.494S506.482,418.2,460.579,463.207,353.671,533,288.765,533Z" transform="translate(-10.806 -10.592)"/><path class="c" d="M295.4,68.719c-63.349,0-122.876,24.206-167.634,68.1S58.337,239.082,58.337,301.207s24.68,120.516,69.433,164.405S232.051,533.7,295.4,533.7s122.872-24.2,167.625-68.091,69.433-102.276,69.433-164.405-24.68-120.5-69.433-164.388S358.739,68.719,295.4,68.719Zm0-.719c63.537,0,123.267,24.28,168.147,68.306s69.648,102.588,69.648,164.9S508.436,422.1,463.547,466.121s-104.606,68.3-168.147,68.3-123.267-24.276-168.152-68.3S57.6,363.529,57.6,301.207s24.741-120.872,69.648-164.9S231.858,68,295.4,68Z" transform="translate(-17.44 -17.104)"/><path class="c" d="M302.034,80.314c-61.984,0-120.2,23.688-163.962,66.608S70.157,246.93,70.157,307.712s24.162,117.9,67.915,160.808,101.974,66.59,163.962,66.59,120.2-23.688,163.958-66.6S533.908,368.49,533.908,307.7s-24.162-117.867-67.915-160.778S364.023,80.314,302.034,80.314Zm0-.724c62.177,0,120.586,23.772,164.48,66.818s68.152,100.329,68.152,161.3-24.241,118.27-68.135,161.317-102.294,66.814-164.476,66.814-120.6-23.772-164.5-66.814S69.42,368.7,69.42,307.712s24.237-118.275,68.13-161.3S239.853,79.59,302.034,79.59Z" transform="translate(-24.075 -23.609)"/><path class="c" d="M308.669,91.9c-60.624,0-117.564,23.188-160.3,65.121s-66.4,97.745-66.4,157.194,23.644,115.283,66.4,157.211,99.671,65.112,160.3,65.112,117.538-23.184,160.291-65.112,66.4-97.754,66.4-157.211-23.644-115.265-66.4-157.194S369.285,91.9,308.669,91.9Zm0-.724c60.813,0,117.919,23.25,160.808,65.331s66.617,98.065,66.617,157.707-23.723,115.656-66.617,157.72-99.991,65.327-160.808,65.327-117.928-23.25-160.817-65.327S81.24,373.869,81.24,314.218s23.719-115.643,66.612-157.707S247.852,91.18,308.669,91.18Z" transform="translate(-30.71 -30.115)"/><path class="c" d="M315.3,103.5c-59.26,0-114.875,22.684-156.628,63.634S93.8,262.619,93.8,320.73s23.127,112.664,64.88,153.614,97.385,63.607,156.628,63.607,114.871-22.679,156.606-63.607,64.88-95.494,64.88-153.614-23.127-112.651-64.88-153.6S374.56,103.5,315.3,103.5Zm0-.719c59.453,0,115.252,22.754,157.141,63.84s65.1,95.806,65.1,154.11-23.206,113.041-65.1,154.141S374.757,538.706,315.3,538.706s-115.261-22.771-157.15-63.836S93.06,379.042,93.06,320.73s23.223-113.011,65.095-154.11S255.847,102.78,315.3,102.78Z" transform="translate(-37.345 -36.627)"/><path class="c" d="M321.945,115.074c-57.9,0-112.208,22.17-152.96,62.142s-63.362,93.235-63.362,150.008,22.609,110.05,63.362,150.017,95.06,62.138,152.96,62.138S434.148,517.2,474.9,477.241s63.362-93.235,63.362-150.026-22.609-110.032-63.362-150S379.836,115.074,321.945,115.074Zm0-.724c58.089,0,112.585,22.249,153.474,62.353S539,270.245,539,327.215s-22.688,110.422-63.581,150.526-95.38,62.348-153.474,62.348-112.6-22.236-153.482-62.34S104.89,384.2,104.89,327.224s22.679-110.409,63.572-150.513,95.389-62.353,153.482-62.353Z" transform="translate(-43.986 -43.121)"/><path class="c" d="M328.58,126.689c-56.536,0-109.532,21.666-149.293,60.655s-61.853,90.963-61.853,146.4,22.092,107.431,61.853,146.42,92.757,60.646,149.293,60.646,109.536-21.662,149.284-60.646,61.853-90.981,61.853-146.42-22.092-107.418-61.853-146.4S385.107,126.689,328.58,126.689Zm0-.719c56.729,0,109.918,21.741,149.806,60.866s62.059,91.279,62.059,146.911-22.166,107.808-62.059,146.929S385.3,541.537,328.58,541.537,218.657,519.8,178.765,480.676,116.71,389.388,116.71,333.747s22.166-107.79,62.055-146.911,93.082-60.853,149.815-60.853Z" transform="translate(-50.621 -49.644)"/><path class="c" d="M335.215,138.279a206.768,206.768,0,0,0-145.639,59.168c-38.765,38.011-60.313,88.7-60.313,142.805s21.574,104.812,60.326,142.818,90.45,59.164,145.639,59.164a206.774,206.774,0,0,0,145.639-59.159c38.77-38,60.3-88.7,60.3-142.823s-21.57-104.8-60.326-142.805A206.737,206.737,0,0,0,335.215,138.279Zm0-.719c55.365,0,107.246,21.232,146.139,59.379s60.537,89.02,60.537,143.314-21.648,105.189-60.537,143.332-90.77,59.37-146.139,59.37-107.255-21.232-146.148-59.37-60.537-89.05-60.537-143.332,21.648-105.176,60.537-143.314A207.487,207.487,0,0,1,335.215,137.56Z" transform="translate(-57.255 -56.15)"/><path class="c" d="M341.849,149.874A201.529,201.529,0,0,0,199.891,207.55C162.134,244.579,141.074,294,141.074,346.758S162.13,448.969,199.856,485.98a203.582,203.582,0,0,0,283.948,0c37.757-37.024,58.782-86.449,58.782-139.221S521.529,244.579,483.8,207.555A201.5,201.5,0,0,0,341.849,149.874Zm0-.724a202.212,202.212,0,0,1,142.472,57.9c37.893,37.177,59.015,86.743,59.015,139.7s-21.131,102.575-59.023,139.735a204.281,204.281,0,0,1-284.944,0c-37.892-37.16-59.019-86.765-59.019-139.735S161.481,244.2,199.369,207.042A202.28,202.28,0,0,1,341.849,149.15Z" transform="translate(-63.89 -62.655)"/><path class="c" d="M348.484,161.469a196.33,196.33,0,0,0-138.291,56.189c-36.756,36.05-57.286,84.181-57.286,135.611s20.534,99.578,57.286,135.624a198.279,198.279,0,0,0,276.578,0c36.756-36.063,57.286-84.186,57.286-135.624s-20.534-99.578-57.286-135.611A196.394,196.394,0,0,0,348.484,161.469Zm0-.719a197.053,197.053,0,0,1,138.8,56.4c36.892,36.186,57.505,84.5,57.505,136.12s-20.618,99.956-57.505,136.137a199.048,199.048,0,0,1-277.618.018c-36.892-36.16-57.5-84.523-57.5-136.155s20.618-99.943,57.5-136.12A197.088,197.088,0,0,1,348.484,160.75Z" transform="translate(-70.525 -69.167)"/><path class="c" d="M355.125,173.068a191.141,191.141,0,0,0-134.624,54.7c-35.756,35.067-55.768,81.913-55.768,132.005s20.017,96.946,55.768,132.04a193.013,193.013,0,0,0,269.244,0c35.756-35.067,55.768-81.926,55.768-132.04S525.5,262.829,489.744,227.762A191.13,191.13,0,0,0,355.125,173.068Zm0-.719a191.864,191.864,0,0,1,135.137,54.913c35.892,35.2,55.988,82.233,55.988,132.514s-20.1,97.341-55.988,132.54a193.771,193.771,0,0,1-270.283,0C184.087,457.117,164,410.069,164,359.776s20.1-97.324,55.983-132.523A191.878,191.878,0,0,1,355.125,172.34Z" transform="translate(-77.166 -75.673)"/><path class="c" d="M361.754,184.654A185.957,185.957,0,0,0,230.8,237.865c-34.756,34.085-54.251,79.663-54.251,128.417s19.5,94.345,54.251,128.43a187.759,187.759,0,0,0,261.909,0c34.747-34.085,54.251-79.667,54.251-128.43s-19.5-94.314-54.251-128.417A185.894,185.894,0,0,0,361.754,184.654Zm0-.724a186.684,186.684,0,0,1,131.47,53.426c34.892,34.221,54.47,79.961,54.47,128.926S528.116,461,493.224,495.225a188.49,188.49,0,0,1-262.935,0c-34.879-34.216-54.479-79.983-54.479-128.943s19.578-94.709,54.479-128.926A186.7,186.7,0,0,1,361.754,183.93Z" transform="translate(-83.795 -82.178)"/><path class="c" d="M368.389,196.249A180.757,180.757,0,0,0,241.1,247.973c-33.756,33.107-52.733,77.4-52.733,124.82s18.981,91.731,52.733,124.833a182.488,182.488,0,0,0,254.57,0c33.751-33.107,52.737-77.4,52.737-124.833s-18.981-91.718-52.733-124.82A180.765,180.765,0,0,0,368.389,196.249Zm0-.719a181.473,181.473,0,0,1,127.8,51.934c33.892,33.243,52.952,77.715,52.952,125.329s-19.06,92.108-52.965,125.342a183.224,183.224,0,0,1-255.61,0C206.682,464.9,187.63,420.415,187.63,372.793s19.06-92.095,52.948-125.329A181.523,181.523,0,0,1,368.389,195.53Z" transform="translate(-90.43 -88.69)"/><path class="c" d="M375.024,207.839A175.569,175.569,0,0,0,251.4,258.076c-32.756,32.124-51.215,75.14-51.215,121.223s18.464,89.112,51.215,121.24a177.234,177.234,0,0,0,247.235,0c32.751-32.12,51.219-75.144,51.219-121.236s-18.464-89.1-51.215-121.227A175.566,175.566,0,0,0,375.024,207.839Zm0-.719a176.328,176.328,0,0,1,124.144,50.447c32.9,32.26,51.434,75.452,51.434,121.731s-18.543,89.489-51.434,121.745a177.975,177.975,0,0,1-248.288,0c-32.9-32.264-51.43-75.452-51.43-121.745s18.538-89.489,51.426-121.731A176.383,176.383,0,0,1,375.024,207.12Z" transform="translate(-97.065 -95.196)"/><path class="c" d="M381.665,219.434A170.388,170.388,0,0,0,261.71,268.179a164.115,164.115,0,0,0,0,235.264,171.968,171.968,0,0,0,239.9,0,163.757,163.757,0,0,0,49.7-117.639c0-44.753-17.946-86.484-49.7-117.625A170.374,170.374,0,0,0,381.665,219.434Zm0-.724a171.085,171.085,0,0,1,120.468,48.96c31.891,31.282,49.912,73.192,49.912,118.134s-18.025,86.875-49.912,118.169a172.7,172.7,0,0,1-240.94,0A164.564,164.564,0,0,1,211.28,385.8c0-44.951,18.021-86.857,49.912-118.134A171.114,171.114,0,0,1,381.665,218.71Z" transform="translate(-103.705 -101.701)"/><path class="c" d="M388.3,231.051a165.217,165.217,0,0,0-116.287,47.258,159.069,159.069,0,0,0,0,228.083,166.747,166.747,0,0,0,232.566-.035A158.89,158.89,0,0,0,552.762,392.3c0-43.428-17.428-83.852-48.179-114.015A165.154,165.154,0,0,0,388.3,231.051Zm0-.719A165.9,165.9,0,0,1,505.1,277.8c30.891,30.3,48.394,70.933,48.394,114.537s-17.507,84.234-48.372,114.528a167.421,167.421,0,0,1-233.628,0A159.587,159.587,0,0,1,223.1,392.316c0-43.6,17.5-84.225,48.394-114.537A165.846,165.846,0,0,1,388.3,230.31Z" transform="translate(-110.34 -108.213)"/><path class="c" d="M394.934,242.624a159.973,159.973,0,0,0-112.62,45.767,154.012,154.012,0,0,0,.018,220.876,161.416,161.416,0,0,0,225.214,0,154.027,154.027,0,0,0,0-220.876A159.981,159.981,0,0,0,394.934,242.624Zm0-.724a160.738,160.738,0,0,1,113.133,45.982,154.732,154.732,0,0,1,0,221.893,162.184,162.184,0,0,1-226.271,0,154.732,154.732,0,0,1,0-221.893A160.74,160.74,0,0,1,394.934,241.9Z" transform="translate(-116.975 -114.719)"/><path class="c" d="M401.569,254.214a154.792,154.792,0,0,0-108.953,44.28,149.011,149.011,0,0,0,0,213.681,156.162,156.162,0,0,0,217.879,0c28.737-28.2,45.183-66.1,45.183-106.847A148.833,148.833,0,0,0,510.54,298.493,154.833,154.833,0,0,0,401.569,254.214Zm0-.724a155.511,155.511,0,0,1,109.466,44.494,149.71,149.71,0,0,1,0,214.7,156.919,156.919,0,0,1-218.937,0,149.711,149.711,0,0,1,0-214.7A155.533,155.533,0,0,1,401.569,253.49Z" transform="translate(-123.61 -121.224)"/><path class="c" d="M408.2,265.809A149.574,149.574,0,0,0,302.923,308.6a143.985,143.985,0,0,0,0,206.492,150.912,150.912,0,0,0,210.558,0,143.985,143.985,0,0,0,0-206.492A149.628,149.628,0,0,0,408.2,265.809Zm0-.719A150.409,150.409,0,0,1,514,308.08,144.7,144.7,0,0,1,514,515.6a151.687,151.687,0,0,1-211.6,0,144.689,144.689,0,0,1,0-207.5A150.348,150.348,0,0,1,408.2,265.09Z" transform="translate(-130.245 -127.736)"/><path class="c" d="M414.839,277.4a144.407,144.407,0,0,0-101.618,41.3,138.948,138.948,0,0,0,0,199.293,145.647,145.647,0,0,0,203.224,0,138.948,138.948,0,0,0,0-199.293A144.4,144.4,0,0,0,414.839,277.4Zm0-.724A145.119,145.119,0,0,1,516.971,318.2a139.684,139.684,0,0,1,0,200.333,146.4,146.4,0,0,1-204.268,0,139.668,139.668,0,0,1,0-200.311A145.16,145.16,0,0,1,414.839,276.68Z" transform="translate(-136.88 -134.242)"/><path class="c" d="M421.485,288.994a139.218,139.218,0,0,0-97.951,39.814,133.957,133.957,0,0,0,0,192.112,140.4,140.4,0,0,0,195.906-.013,133.937,133.937,0,0,0,0-192.1A139.216,139.216,0,0,0,421.485,288.994Zm0-.724A139.937,139.937,0,0,1,519.949,328.3a134.667,134.667,0,0,1,0,193.116,141.128,141.128,0,0,1-196.933,0,134.667,134.667,0,0,1,0-193.116,139.947,139.947,0,0,1,98.469-40.033Z" transform="translate(-143.526 -140.747)"/><path class="c" d="M428.1,300.589a133.98,133.98,0,0,0-94.284,38.327,128.92,128.92,0,0,0,0,184.9,135.127,135.127,0,0,0,188.554,0,128.915,128.915,0,0,0,0-184.9A133.97,133.97,0,0,0,428.1,300.589Zm0-.719a134.745,134.745,0,0,1,94.8,38.537,129.635,129.635,0,0,1,0,185.922,135.879,135.879,0,0,1-189.6,0,129.62,129.62,0,0,1-.013-185.922A134.789,134.789,0,0,1,428.1,299.87Z" transform="translate(-150.138 -147.259)"/><path class="c" d="M434.749,312.184a128.788,128.788,0,0,0-90.616,36.848,123.883,123.883,0,0,0,0,177.7,129.829,129.829,0,0,0,181.22,0,123.894,123.894,0,0,0,0-177.71A128.812,128.812,0,0,0,434.749,312.184Zm0-.724a129.469,129.469,0,0,1,91.13,37.05,124.614,124.614,0,0,1,0,178.728,130.614,130.614,0,0,1-182.264,0,124.614,124.614,0,0,1,0-178.728A129.558,129.558,0,0,1,434.749,311.46Z" transform="translate(-156.79 -153.765)"/><path class="c" d="M441.384,323.774a123.624,123.624,0,0,0-86.949,35.348,118.893,118.893,0,0,0,0,170.521,124.6,124.6,0,0,0,173.885,0,118.893,118.893,0,0,0-.013-170.521A123.591,123.591,0,0,0,441.384,323.774Zm0-.724a124.355,124.355,0,0,1,87.462,35.563,119.592,119.592,0,0,1,0,171.534,125.349,125.349,0,0,1-174.929,0,119.592,119.592,0,0,1,0-171.534,124.369,124.369,0,0,1,87.467-35.563Z" transform="translate(-163.425 -160.27)"/><path class="c" d="M448.019,335.369a118.441,118.441,0,0,0-83.277,33.861,113.856,113.856,0,0,0,0,163.318,119.319,119.319,0,0,0,166.551,0,113.856,113.856,0,0,0,0-163.318A118.441,118.441,0,0,0,448.019,335.369Zm0-.719a119.152,119.152,0,0,1,83.786,34.072,114.607,114.607,0,0,1,.009,164.362,120.1,120.1,0,0,1-167.573,0,114.572,114.572,0,0,1-.022-164.362A119.152,119.152,0,0,1,448.019,334.649Z" transform="translate(-170.06 -166.781)"/><path class="c" d="M454.654,346.963a113.213,113.213,0,0,0-79.61,32.37,108.861,108.861,0,0,0,0,156.141,114.055,114.055,0,0,0,159.238,0,108.856,108.856,0,0,0,0-156.141,113.208,113.208,0,0,0-79.632-32.37Zm0-.724a113.962,113.962,0,0,1,80.128,32.585,109.545,109.545,0,0,1,0,157.145,114.822,114.822,0,0,1-160.256,0,109.55,109.55,0,0,1,0-157.145,113.963,113.963,0,0,1,80.132-32.585Z" transform="translate(-176.695 -173.287)"/><path class="c" d="M461.3,358.559a108.032,108.032,0,0,0-75.943,30.883,103.813,103.813,0,0,0,0,148.929,108.791,108.791,0,0,0,151.881,0,103.813,103.813,0,0,0,0-148.929A108.027,108.027,0,0,0,461.3,358.559Zm0-.719a108.791,108.791,0,0,1,76.465,31.093,104.528,104.528,0,0,1,0,149.951,109.554,109.554,0,0,1-152.921,0,104.523,104.523,0,0,1,0-149.947A108.79,108.79,0,0,1,461.3,357.839Z" transform="translate(-183.341 -179.798)"/><path class="c" d="M467.952,370.149a102.82,102.82,0,0,0-72.276,29.391,98.792,98.792,0,0,0,0,141.735,103.527,103.527,0,0,0,144.547,0,98.787,98.787,0,0,0,0-141.73,102.82,102.82,0,0,0-72.271-29.4Zm0-.719a103.566,103.566,0,0,1,72.793,29.606,99.5,99.5,0,0,1,0,142.757,104.294,104.294,0,0,1-145.582,0,99.527,99.527,0,0,1,.018-142.757,103.571,103.571,0,0,1,72.776-29.606Z" transform="translate(-189.993 -186.304)"/><path class="c" d="M474.564,381.732a97.635,97.635,0,0,0-68.608,27.9,93.781,93.781,0,0,0,0,134.549,98.263,98.263,0,0,0,137.212,0,93.781,93.781,0,0,0,0-134.549,97.64,97.64,0,0,0-68.6-27.9Zm0-.724a98.39,98.39,0,0,1,69.126,28.119,94.475,94.475,0,0,1,0,135.558,99.021,99.021,0,0,1-138.247,0,94.486,94.486,0,0,1,0-135.558A98.394,98.394,0,0,1,474.564,381Z" transform="translate(-196.605 -192.799)"/><path class="c" d="M481.2,393.339a92.459,92.459,0,0,0-64.923,26.417,88.749,88.749,0,0,0,0,127.346,93.025,93.025,0,0,0,129.878,0,88.749,88.749,0,0,0,0-127.346A92.459,92.459,0,0,0,481.2,393.339Zm0-.719a93.178,93.178,0,0,1,65.459,26.627,89.464,89.464,0,0,1,0,128.364,93.757,93.757,0,0,1-130.913,0,89.464,89.464,0,0,1,0-128.364A93.187,93.187,0,0,1,481.2,392.62Z" transform="translate(-203.24 -199.322)"/><path class="c" d="M487.862,404.929a87.234,87.234,0,0,0-61.278,24.934,83.759,83.759,0,0,0,0,120.17,87.761,87.761,0,0,0,122.543,0,83.754,83.754,0,0,0,0-120.174A87.248,87.248,0,0,0,487.862,404.929Zm0-.719a88,88,0,0,1,61.791,25.14,84.418,84.418,0,0,1,.018,121.17,88.5,88.5,0,0,1-123.578,0,84.468,84.468,0,0,1-.026-121.17,88,88,0,0,1,61.8-25.14Z" transform="translate(-209.903 -205.827)"/><path class="c" d="M494.469,416.524c-44.937,0-81.492,35.848-81.492,79.917s36.555,79.922,81.492,79.922,81.488-35.853,81.488-79.922S539.4,416.524,494.469,416.524Zm0,160.554c-45.341,0-82.229-36.177-82.229-80.641S449.128,415.8,494.469,415.8s82.225,36.177,82.225,80.641-36.884,80.641-82.225,80.641Z" transform="translate(-216.51 -212.334)"/><path class="a" d="M592.828,568.852A24.529,24.529,0,1,1,568.3,544.8,24.284,24.284,0,0,1,592.828,568.852Z" transform="translate(-290.347 -284.745)"/></g></svg>