<svg xmlns="http://www.w3.org/2000/svg" width="934.225" height="1307.952" viewBox="0 0 934.225 1307.952"><defs><style>.a{opacity:0.15;}.b{fill:#fff;}</style></defs><g class="a" transform="matrix(-0.259, 0.966, -0.966, -0.259, 1081.962, 189.292)"><path class="b" d="M1197.8,792.78l-8.98,6.4L738.69,168.19,597.79,402.83,475.62,250.19,337.11,497.23,133.99,261.11,28.79,633.32l-10.62-3.01L128.96,238.34,335.2,478.08,474,230.52,596.49,383.55,737.9,148.08Z"/><path class="b" d="M1157.43,786.66l-8.69,6.19L733.62,210.47,598.64,435.24,480.4,287.07,342.72,530.74,149.28,306.6,48.77,659.94l-10.26-2.92L144.43,284.65,340.89,512.29,478.88,268.07,597.4,416.58,732.85,191.02Z"/><path class="b" d="M1117.06,780.55l-8.39,5.97L728.54,252.74,599.49,467.64,485.17,323.94,348.33,564.25,164.56,352.09,68.74,686.56l-9.89-2.83L159.9,330.98,346.59,546.51,483.76,305.62,598.31,449.61,727.8,233.95Z"/><path class="b" d="M1076.69,774.43l-8.09,5.75L723.47,295.02,600.35,500.05,489.95,360.81,353.94,597.76,179.85,397.58,88.72,713.18l-9.54-2.75,96.19-333.14L352.28,580.72,488.63,343.16,599.21,482.64,722.76,276.89Z"/><path class="b" d="M1036.32,768.31l-7.8,5.54L718.39,337.29,601.19,532.45,494.74,397.69,359.56,631.29,195.14,443.06,108.7,739.8l-9.18-2.67,91.32-313.52L357.97,614.93,493.51,380.71,600.12,515.66,717.71,319.83Z"/><path class="b" d="M995.95,762.2l-7.5,5.32L713.31,379.56,602.04,564.85,499.51,434.56,365.17,664.8,210.43,488.55,128.67,766.43l-8.82-2.59,86.46-293.91L363.66,649.14,498.38,418.25,601.03,548.69,712.67,362.77Z"/><path class="b" d="M955.58,756.09l-7.21,5.09L708.23,421.84,602.9,597.26,504.29,471.43,370.78,698.31,225.71,534.02,148.65,793.05l-8.46-2.52,81.6-274.28,147.56,167.1L503.26,455.8l98.67,125.92,105.7-176.01Z"/><path class="b" d="M915.21,749.97l-6.92,4.87L703.16,464.12,603.75,629.67,509.08,508.32,376.4,731.84,241,579.51,168.62,819.68l-8.1-2.44,76.74-254.67,137.78,155L508.13,493.34l94.71,121.41,99.74-166.11Z"/><path class="b" d="M874.84,743.86l-6.62,4.65L698.08,506.4,604.6,662.07,513.86,545.19,382.02,765.35,256.28,624.98,188.59,846.3l-7.73-2.37L252.74,608.9,380.72,751.77,513,530.89l90.75,116.89,93.79-156.21Z"/><path class="b" d="M834.47,737.75l-6.33,4.42L692.99,548.69,605.45,694.47l-86.81-112.4-131,216.8L271.56,670.46,208.57,872.93l-7.38-2.3,67.02-215.4L386.4,785.98,517.87,568.42,604.65,680.8,692.5,534.5Z"/><path class="b" d="M794.11,731.64l-6.05,4.19L687.91,590.99,606.3,726.88,523.44,618.96,393.26,832.38,286.85,715.92l-58.3,183.64-7.02-2.23,62.16-195.77L392.08,820.19,522.74,605.96l82.82,107.87,81.91-136.41Z"/></g></svg>