<svg xmlns="http://www.w3.org/2000/svg" width="1618.203" height="1113.311" viewBox="0 0 1618.203 1113.311"><defs><style>.a{opacity:0.358;}.b{fill:#fff;}</style></defs><g class="a" transform="translate(-7.58 -192.28)"><path class="b" d="M7.58,1021.5l1.366,1.025A680.941,680.941,0,0,0,88.5,964.64L72.557,975.572A691.282,691.282,0,0,1,7.58,1021.5Z" transform="translate(0 283.066)"/><path class="b" d="M1311.12,220.484c-130.1,35.748-207.871,80.623-260.058,150.014-16.4,21.864-26.934,45.832-37.114,69.049-11.752,26.852-23.927,54.66-45.231,78.915-20.689,23.586-51.08,45.491-95.655,68.912-64.676,34.026-138.1,60.987-209.074,87.059C580.483,705.1,494.12,736.828,421.71,780.16,355.585,819.774,303.931,867.738,272.5,918.873c-18.967,30.869-31.32,63.884-43.277,95.819-7.693,20.5-15.646,41.815-25.294,62.312C172.5,1143.852,121.6,1205.659,55.12,1258.665l15.947-10.932c59.606-50.451,105.507-108.2,134.791-170.347,9.661-20.5,17.628-41.815,25.335-62.394,11.929-31.88,24.255-64.84,43.181-95.655,31.306-50.943,82.714-98.743,148.661-138.207C495.268,737.894,581.548,706.2,664.9,675.568c71.058-26.1,144.562-53.088,209.361-87.169,44.807-23.449,75.362-45.477,96.242-69.213,21.44-24.447,33.643-52.3,45.436-79.257,10.139-23.162,20.634-47.1,36.9-68.817,51.927-69.076,129.407-113.733,259.046-149.372,60.344-18.092,159.224-27.508,294.439-28.1l2.036-1.367C1471.833,192.758,1371.984,202.214,1311.12,220.484Z" transform="translate(17.423 0)"/><path class="b" d="M1296.72,227.483c-125.417,35.72-199.508,76.524-252.282,146.666-16.4,21.864-26.934,45.832-37.1,69.049-11.766,26.865-23.927,54.66-45.245,78.915C941.4,545.7,911.013,567.6,866.438,591.039c-64.676,34.012-138.1,60.973-209.074,87.046C573.858,708.762,487.5,740.478,415.085,783.81c-66.179,39.628-117.778,87.579-149.194,138.713-18.967,30.883-31.32,63.884-43.236,95.791-7.693,20.5-15.66,41.815-25.307,62.312C179,1119.6,154.03,1156.863,123.27,1191.668l5.876-4.1c28.942-33.534,52.555-69.268,70.128-106.587,9.661-20.5,17.628-41.815,25.335-62.394,11.929-31.88,24.269-64.84,43.181-95.655C299.1,871.99,350.5,824.2,416.465,784.726c72.219-43.236,158.513-74.911,241.87-105.548C729.392,653.077,802.9,626.089,867.7,592c44.766-23.545,75.321-45.559,96.146-69.295,21.44-24.447,33.643-52.3,45.436-79.257,10.153-23.162,20.634-47.117,36.964-68.83,52.542-69.855,126.319-110.426,251.271-146.01,59.2-16.863,149.413-26.059,267.081-26.647l2.022-1.366C1447.7,201.219,1356.49,210.47,1296.72,227.483Z" transform="translate(42.4 3.046)"/><path class="b" d="M1293.372,234.458c-121.536,34.326-191.118,72.315-244.507,143.3-16.4,21.864-26.934,45.832-37.1,69.063-11.765,26.852-23.927,54.66-45.245,78.9-20.689,23.586-51.08,45.491-95.655,68.926-64.676,34.012-138.1,60.973-209.074,87.046-83.52,30.678-169.883,62.394-242.279,105.726C353.319,827.052,301.734,875.016,270.3,926.136c-18.981,30.883-31.334,63.884-43.277,95.819-7.693,20.5-15.66,41.815-25.308,62.312a448.643,448.643,0,0,1-40.38,68.612l4.455-3.075a448.476,448.476,0,0,0,37.852-65.114c9.675-20.5,17.628-41.815,25.335-62.394,11.93-31.88,24.269-64.84,43.181-95.655,31.32-50.9,82.755-98.62,148.688-138.166,72.233-43.236,158.513-74.911,241.87-105.548,71.058-26.1,144.561-53.088,209.374-87.182,44.753-23.545,75.307-45.559,96.133-69.295,21.44-24.447,33.643-52.3,45.436-79.257,10.153-23.162,20.648-47.117,36.9-68.817C1103.7,307.716,1173,269.9,1294.041,235.715c57.051-16.07,138.754-24.679,240.162-25.348l2.022-1.367C1433.615,209.533,1350.942,218.2,1293.372,234.458Z" transform="translate(56.352 6.128)"/><path class="b" d="M1293,241.579c-117.614,33-182.741,68.147-236.732,139.943-16.4,21.864-26.934,45.832-37.1,69.063-11.765,26.852-23.927,54.66-45.245,78.915-20.689,23.64-51.079,45.5-95.668,68.9-64.635,34-138.016,60.973-209.074,87.046C585.661,716.121,499.3,747.838,426.9,791.183,360.709,830.811,309.124,878.761,277.694,929.9c-18.981,30.869-31.334,63.884-43.277,95.8-7.693,20.5-15.66,41.815-25.307,62.312q-8.076,17.149-17.86,33.834l3.621-2.473q8.759-15.277,16.166-30.924c9.675-20.5,17.641-41.828,25.335-62.408,11.929-31.88,24.269-64.84,43.181-95.655,31.306-50.943,82.714-98.729,148.675-138.207,72.233-43.236,158.513-74.911,241.87-105.548,71.058-26.1,144.548-53.088,209.361-87.169,44.753-23.545,75.307-45.573,96.133-69.309,21.44-24.433,33.643-52.3,45.436-79.257,10.153-23.23,20.648-47.117,36.964-68.817,53.731-71.44,118.571-106.436,235.707-139.382,53.949-15.127,126.852-23.23,213.173-24.283l2.05-1.367C1421.505,218.075,1347.605,226.233,1293,241.579Z" transform="translate(67.314 9.078)"/><path class="b" d="M1294.322,248.611c-113.679,31.716-174.365,64.007-228.956,136.649-16.4,21.864-26.934,45.832-37.1,69.063-11.765,26.852-23.927,54.66-45.245,78.915-20.689,23.586-51.08,45.477-95.655,68.912-64.676,34.012-138.084,60.973-209.074,87.059-83.52,30.664-169.883,62.38-242.279,105.726C369.833,834.5,318.289,882.459,286.86,933.594c-19.022,30.869-31.429,63.884-43.318,95.8-7.693,20.5-15.646,41.828-25.294,62.312-.547,1.161-1.162,2.3-1.708,3.443l3.239-2.227.383-.779c9.675-20.5,17.641-41.828,25.335-62.408,11.93-31.867,24.269-64.826,43.181-95.655,31.306-50.929,82.714-98.729,148.675-138.207,72.233-43.236,158.513-74.911,241.87-105.548,71.058-26.1,144.548-53.088,209.361-87.169,44.766-23.545,75.307-45.573,96.133-69.309,21.44-24.433,33.643-52.3,45.45-79.257,10.139-23.162,20.634-47.117,36.9-68.817,54.332-72.233,114.786-104.373,227.931-135.953,50.055-13.966,113.925-21.645,186.4-23.23l2.05-1.366C1409.954,226.733,1345.073,234.481,1294.322,248.611Z" transform="translate(76.583 12.076)"/><path class="b" d="M1296.682,255.659c-109.73,30.459-165.988,59.852-221.181,133.233-16.4,21.864-26.934,45.846-37.1,69.063-11.766,26.852-23.927,54.66-45.231,78.915-20.7,23.586-51.093,45.477-95.655,68.912-64.676,34.026-138.016,60.987-209.074,87.059-83.506,30.664-169.869,62.38-242.266,105.726C380,838.2,328.4,886.146,296.968,937.28c-18.981,30.869-31.334,63.884-43.277,95.8-4.687,12.531-9.565,25.308-14.731,38.016l2.938-2.009c4.824-11.943,9.36-23.914,13.761-35.665,11.916-31.867,24.255-64.827,43.168-95.655C330.133,886.83,381.54,839.043,447.5,799.565,519.734,756.329,606.014,724.64,689.37,694c71.058-26.1,144.561-53.088,209.361-87.169,44.766-23.545,75.307-45.559,96.133-69.295,21.44-24.447,33.643-52.3,45.45-79.257,10.139-23.162,20.634-47.117,36.964-68.817,54.906-73.026,110.918-102.268,220.142-132.55,45.094-12.531,99.754-19.773,159.388-22l2.159-1.476C1398.226,235.572,1342.609,242.91,1296.682,255.659Z" transform="translate(84.8 15.085)"/><path class="b" d="M699.113,593.544c-83.52,30.705-169.91,62.394-242.334,105.726C390.6,738.9,339,786.848,307.571,837.982c-18.871,30.869-31.279,63.883-43.222,95.8-1.435,3.84-2.9,7.721-4.359,11.588l2.815-1.927,3.512-9.319c11.916-31.867,24.255-64.827,43.168-95.655,31.306-50.943,82.728-98.729,148.675-138.207,72.233-43.236,158.513-74.911,241.87-105.548,56.272-20.675,114.061-41.91,167.86-66.781l7.693-5.288C819.433,549.338,758.446,571.762,699.113,593.544Z" transform="translate(92.507 121.079)"/><path class="b" d="M840.8,463.087c-20.7,23.586-51.08,45.491-95.655,68.926-10.631,5.589-21.522,10.932-32.577,16.207l-7.693,5.288c14.13-6.532,28.013-13.31,41.5-20.4,44.766-23.545,75.307-45.559,96.147-69.3,3.088-3.526,5.958-7.133,8.7-10.782l-5.042,3.457C844.43,458.7,842.695,460.928,840.8,463.087Z" transform="translate(255.553 95.563)"/><path class="b" d="M1098.629,262.445c-104.8,30.842-157.6,55.7-213.405,129.9-16.4,21.864-26.92,45.832-37.1,69.049-10.713,24.46-21.864,49.658-39.833,72.315l5.07-3.5c16.22-21.686,26.633-45.395,36.731-68.448s20.634-47.117,36.9-68.83C942.493,319.141,995.062,294.38,1099.34,263.7c39.15-10.153,83.766-16.794,131.033-19.841l2.227-1.53C1184.295,245.364,1138.585,252.073,1098.629,262.445Z" transform="translate(293.456 18.343)"/></g></svg>