<svg xmlns="http://www.w3.org/2000/svg" xmlns:xlink="http://www.w3.org/1999/xlink" width="275.385" height="275.385" viewBox="0 0 275.385 275.385"><defs><style>.a{fill:none;}.b{opacity:0.558;}.c{fill:#fff;}.d{fill:#d60b51;}.e{fill:#c99d66;}.f{clip-path:url(#a);}.g{fill:#004b9b;}.h{fill:#2e2868;}</style><clipPath id="a"><path class="a" d="M151.454,38.69v.218h.065v.065h26.312V177.783H37.19V38.69Z" transform="translate(-37.19 -38.69)"/></clipPath></defs><g class="b" transform="translate(100.798) rotate(30)"><path class="c" d="M195.951,5.645v190.1h-.226v.2H5.645V5.846h.234v-.2H195.951M201.6,0H.234V.234H0V201.6H201.337v-.234h.258Z" transform="translate(0)"/><path class="d" d="M286.453,32.208V6.96H96.324v.234H96.09V197.331H286.219V197.1h.234Z" transform="translate(-90.478 -1.348)"/><rect class="e" width="139.875" height="139.875" transform="translate(30.86 30.86)"/><g class="f" transform="translate(29.989 31.199)"><path class="c" d="M130.779,154.389C56.2,151.728,54.689,80.96,54.689,80.96H47.431c-6.088,72.671-75.711,73.429-75.711,73.429v7.991c77.993,4.185,74.994,77.614,74.994,77.614.564-.564,6.846,0,6.846,0,6.451-76.469,77.235-76.469,77.235-76.469ZM10.814,125.972a6.661,6.661,0,1,0-6.661-6.661,6.661,6.661,0,0,0,6.661,6.661ZM124.707,92.741a6.661,6.661,0,1,0-6.653-6.653,6.661,6.661,0,0,0,6.653,6.653Zm-147.124,0A6.653,6.653,0,0,0-17.708,90.8a6.653,6.653,0,0,0,1.951-4.707,6.661,6.661,0,0,0-6.661-6.661,6.653,6.653,0,0,0-4.707,1.951,6.653,6.653,0,0,0-1.946,4.709,6.653,6.653,0,0,0,6.653,6.653Zm130.384,20.885a10.8,10.8,0,1,0-10.8-10.8,10.8,10.8,0,0,0,10.8,10.8ZM91.484,125.972a6.653,6.653,0,1,0-4.712-1.949A6.661,6.661,0,0,0,91.484,125.972ZM-5.677,113.627a10.8,10.8,0,0,0,10.8-10.8,10.789,10.789,0,0,0-3.16-7.637,10.789,10.789,0,0,0-7.637-3.16,10.789,10.789,0,0,0-10.789,10.8,10.8,10.8,0,0,0,10.789,10.8ZM-22.417,224.8a6.653,6.653,0,0,0-4.716,1.96,6.653,6.653,0,0,0-1.937,4.725,6.653,6.653,0,0,0,1.946,4.709,6.653,6.653,0,0,0,4.707,1.951,6.661,6.661,0,0,0,6.661-6.661,6.661,6.661,0,0,0-1.942-4.725A6.661,6.661,0,0,0-22.417,224.8Zm147.124,0a6.653,6.653,0,1,0,4.712,1.949A6.661,6.661,0,0,0,124.707,224.8ZM91.484,191.58a6.661,6.661,0,1,0,6.653,6.653,6.661,6.661,0,0,0-6.653-6.653Zm16.482,12.346a10.8,10.8,0,1,0,10.8,10.8,10.8,10.8,0,0,0-10.8-10.8ZM10.814,191.58a6.653,6.653,0,1,0,4.709,1.946,6.661,6.661,0,0,0-4.709-1.946ZM-5.677,203.925a10.8,10.8,0,0,0-10.789,10.8,10.8,10.8,0,0,0,10.789,10.8,10.8,10.8,0,0,0,10.8-10.8,10.8,10.8,0,0,0-10.8-10.8Z" transform="translate(-24.361 -46.576)"/><path class="g" d="M39.4,131.542h.226c2.419-.161,6.346-2.976,5.33-8.564-1.1-6.088-4.032-27.167-4.032-27.167s-.129-1.766-1.29-1.984h0a.274.274,0,0,1-.226,0h0c-1.169.218-1.29,1.984-1.29,1.984s-2.943,21.079-4.032,27.167C33.055,128.567,36.974,131.381,39.4,131.542Zm125.578,89.275c-3.645-3.379-5.314-8.741-5.879-13.531-.734-6.1,0-12.289-.516-18.41a46.56,46.56,0,0,0-16.8-31.836,20.386,20.386,0,0,0,4.363-.468c5.04-1.056,13.047-5.846,13.047-5.846s3.4-2.1,3.725-3.621h.064a.8.8,0,0,0,0-.113.46.46,0,0,0,0-.113h-.064c-.323-1.524-3.725-3.613-3.725-3.613s-8.007-4.79-13.047-5.846a19.6,19.6,0,0,0-4.532-.46,46.569,46.569,0,0,0,16.918-31.981c.508-6.128-.218-12.313.516-18.41.564-4.79,2.234-10.152,5.878-13.531,1.355-1.258,3.693-1.895,3.121-4.169s-3.548-2.209-5.411-1.774c-1.613.387-3.282.943-4.879.508a17.16,17.16,0,0,1,5.322-9.556c1.242-1.113,2.8-2.516,2.3-4.1s-2.766-1.839-4.427-1.4-3.467,1.177-4.992.387c-1.266-.669-1.806-2.153-2.677-3.29s-2.742-1.871-3.629-.742a2.959,2.959,0,0,0-.46,1.5c-.2,1.677-.4,3.363-.6,5.048-1.54,1.032-3.516-.3-4.927-1.5s-3.6-2.339-4.927-1.048-.452,3.322-1.024,4.943c-.855,2.419-4.129,2.7-6.693,2.54a3.556,3.556,0,0,0,2.209,3.072,20.763,20.763,0,0,0,3.846,1.081c4.548,1.218,8.2,4.758,10.483,8.87s3.371,8.782,4.209,13.41a84.41,84.41,0,0,1,1.524,14.652c0,3.064-.951,6.959-4.032,7.354a21.845,21.845,0,0,1-1.218-15.974c.443-1.435,1.032-3.048.306-4.371s-3.395-1.008-3.113.468q-.677-4.258-1.613-8.467c-.331-1.419-.935-3.08-2.355-3.395a2.726,2.726,0,0,0-2.838,1.661,8.064,8.064,0,0,0-.508,3.484L132,73.136c-1-1.548-2.685-3.314-4.354-2.532-1.081.508-1.443,1.847-1.613,3.024a29.029,29.029,0,0,0,.806,11.838c-1.54-1.4-4.274.355-4.33,2.419s1.613,3.822,3.427,4.838c1.677.952,3.863,1.96,3.871,3.887a3.243,3.243,0,0,1-2.419,2.822,15.1,15.1,0,0,1-3.911.46,1.943,1.943,0,0,0-1.121.323c-.71.564-.4,1.71.1,2.468,2.153,3.282,6.249,4.532,9.806,6.177s7.257,4.693,6.878,8.6a9.733,9.733,0,0,1-2.274,4.782,36.973,36.973,0,0,1-15.676,11.926c-3.056,1.21-7.257,1.613-8.943-1.177,3.532-1.766,7.12-3.564,10.039-6.217s5.169-6.314,5.233-10.265c0-2.056-.806-4.427-2.79-5.032-1.693-.516-3.476.5-4.742,1.742s-2.306,2.758-3.83,3.653a11.467,11.467,0,0,0,.177-9.967,4.838,4.838,0,0,0-1.855-2.258c-1.734-.984-4.032,0-5.209,1.613s-1.443,3.693-1.693,5.645a6.29,6.29,0,0,0-6.37-2.347c-2.322,4.419,2.927,9.975.96,14.563a6.983,6.983,0,0,1-3.226,3.226c-4.556,2.419-10.2,1.468-15.047-.355-4.556-1.718-10.427-5.959-14.862-9.62-3.661-4.435-7.9-10.314-9.62-14.862-1.822-4.838-2.806-10.483-.363-15.047a7.015,7.015,0,0,1,3.226-3.226c4.6-1.976,10.144,3.282,14.571.96a6.282,6.282,0,0,0-2.347-6.37,12.123,12.123,0,0,0,5.645-1.693c1.613-1.153,2.621-3.476,1.613-5.209a4.935,4.935,0,0,0-2.258-1.863,11.491,11.491,0,0,0-9.967.185c.9-1.524,2.419-2.564,3.653-3.83s2.258-3.056,1.734-4.75c-.6-1.968-2.967-2.814-5.032-2.782-3.943.065-7.612,2.3-10.265,5.225s-4.395,6.532-6.161,10.064c-2.814-1.677-2.419-5.887-1.169-8.935A36.948,36.948,0,0,1,64.182,49.541a9.717,9.717,0,0,1,4.79-2.274c3.9-.371,6.951,3.314,8.6,6.878s2.895,7.653,6.169,9.8c.758.5,1.911.806,2.476.1a1.96,1.96,0,0,0,.323-1.113,15.1,15.1,0,0,1,.46-3.911A3.313,3.313,0,0,1,89.817,56.6c1.927,0,2.935,2.193,3.887,3.863,1.032,1.814,2.774,3.492,4.838,3.435s3.838-2.79,2.419-4.33a28.909,28.909,0,0,0,11.838.806c1.177-.161,2.508-.532,3.016-1.613.806-1.669-.976-3.355-2.524-4.363l-9.088-5.9a7.9,7.9,0,0,0,3.476-.508,2.718,2.718,0,0,0,1.661-2.814c-.314-1.427-1.976-2.024-3.4-2.355q-4.2-.984-8.459-1.613c1.476.282,1.782-2.419.46-3.113s-2.927-.137-4.363.306A21.772,21.772,0,0,1,77.6,37.115c.387-3.032,4.29-4.032,7.346-3.984a83.727,83.727,0,0,1,14.66,1.524c4.629.806,9.3,1.919,13.4,4.209s7.661,5.943,8.87,10.483a21.428,21.428,0,0,0,1.089,3.846,3.548,3.548,0,0,0,3.072,2.209c-.161-2.572.113-5.838,2.54-6.7,1.613-.573,3.75.218,4.943-1.016s.153-3.524-1.048-4.935-2.532-3.387-1.5-4.919l5.048-.6a2.935,2.935,0,0,0,1.5-.468c1.121-.879.387-2.758-.75-3.629s-2.621-1.411-3.282-2.677c-.806-1.516-.048-3.33.387-4.992s.226-3.9-1.4-4.419-2.976,1.024-4.1,2.258a17.087,17.087,0,0,1-9.556,5.322c-.444-1.613.121-3.266.5-4.879.444-1.863.6-4.838-1.766-5.4s-2.919,1.766-4.169,3.121c-3.379,3.637-8.741,5.306-13.531,5.879-6.1.734-12.289,0-18.41.516a46.56,46.56,0,0,0-32.255,17.3,14.785,14.785,0,0,0-.1-7.088c-1.024-5.048-5.862-13.047-5.862-13.047s-2.064-3.4-3.588-3.766h0a.46.46,0,0,0-.113,0,.807.807,0,0,0-.113,0h0C37.877,21.6,35.781,25,35.781,25s-4.79,8-5.846,13.047a14.888,14.888,0,0,0-.1,7.088,46.544,46.544,0,0,0-32.255-17.3c-6.12-.508-12.305.218-18.41-.516-4.79-.573-10.144-2.242-13.531-5.879-1.25-1.355-1.887-3.7-4.169-3.121s-2.2,3.54-1.766,5.4c.379,1.613.943,3.29.508,4.879a17.063,17.063,0,0,1-9.556-5.322c-1.121-1.234-2.516-2.79-4.1-2.29s-1.839,2.766-1.411,4.419,1.185,3.476.387,4.992c-.661,1.266-2.145,1.806-3.282,2.677s-1.871,2.75-.742,3.629a2.887,2.887,0,0,0,1.492.468l5.056.6c1.032,1.532-.3,3.516-1.5,4.919s-2.339,3.6-1.048,4.935,3.371.476,4.983,1.064c2.419.863,2.7,4.129,2.54,6.7a3.548,3.548,0,0,0,3.064-2.209,20.78,20.78,0,0,0,1.089-3.846c1.218-4.548,4.758-8.209,8.87-10.483s8.773-3.371,13.41-4.209A83.639,83.639,0,0,1-5.893,33.115c3.056,0,6.959.952,7.346,3.984a21.772,21.772,0,0,1-15.966,1.282c-1.468-.468-3.08-1.056-4.363-.331s-1.016,3.395.468,3.113c-2.838.444-5.645,1-8.467,1.613-1.419.331-3.088.927-3.4,2.355a2.742,2.742,0,0,0,1.669,2.83,7.935,7.935,0,0,0,3.484.508l-9.128,5.943c-1.548,1.008-3.314,2.693-2.532,4.363.508,1.072,1.847,1.443,3.024,1.613a28.86,28.86,0,0,0,11.83-.806c-1.4,1.54.363,4.274,2.419,4.33s3.822-1.613,4.838-3.435c.952-1.669,1.968-3.854,3.895-3.863a3.243,3.243,0,0,1,2.822,2.419,15.829,15.829,0,0,1,.46,3.911,1.9,1.9,0,0,0,.323,1.113c.564.718,1.71.4,2.468-.1,3.282-2.145,4.524-6.241,6.177-9.8s4.693-7.257,8.6-6.878a9.677,9.677,0,0,1,4.782,2.274A37.037,37.037,0,0,1,26.741,65.234c1.2,3.048,1.613,7.257-1.177,8.935C23.8,70.636,22,67.056,19.347,64.129S13.033,58.968,9.082,58.9c-2.056,0-4.427.806-5.032,2.782-.516,1.693.5,3.484,1.742,4.75s2.758,2.306,3.653,3.83A11.491,11.491,0,0,0-.522,70.08a4.838,4.838,0,0,0-2.226,1.863c-.984,1.734,0,4.032,1.613,5.209s3.7,1.443,5.685,1.693A6.266,6.266,0,0,0,2.2,85.216c4.419,2.322,9.975-2.935,14.563-.96a6.943,6.943,0,0,1,3.226,3.226c2.419,4.556,1.468,10.2-.355,15.047-1.718,4.548-5.959,10.427-9.62,14.862-4.443,3.677-10.346,7.9-14.87,9.636-4.838,1.822-10.483,2.806-15.047.355a6.967,6.967,0,0,1-3.226-3.226c-1.976-4.588,3.282-10.144.96-14.563a6.274,6.274,0,0,0-6.37,2.347,12.1,12.1,0,0,0-1.693-5.645c-1.153-1.613-3.476-2.621-5.217-1.613A4.838,4.838,0,0,0-37.3,106.94a11.491,11.491,0,0,0,.185,9.967c-1.532-.9-2.564-2.419-3.83-3.653S-44,111-45.7,111.512c-1.968.6-2.814,2.976-2.782,5.032.065,3.951,2.3,7.612,5.225,10.265s6.507,4.451,10.039,6.217c-1.685,2.814-5.887,2.419-8.935,1.177A36.924,36.924,0,0,1-57.84,122.342a9.677,9.677,0,0,1-2.274-4.782c-.371-3.9,3.314-6.951,6.87-8.6s7.661-2.895,9.806-6.177c.5-.758.806-1.9.1-2.468A1.911,1.911,0,0,0-44.454,100a15.055,15.055,0,0,1-3.911-.46,3.225,3.225,0,0,1-2.419-2.822c0-1.927,2.193-2.935,3.863-3.887,1.814-1.032,3.492-2.774,3.435-4.838s-2.8-3.838-4.33-2.419a28.909,28.909,0,0,0,.806-11.838c-.169-1.177-.532-2.516-1.613-3.024-1.669-.806-3.355.984-4.363,2.532l-5.9,9.088a7.935,7.935,0,0,0-.508-3.484,2.718,2.718,0,0,0-2.83-1.661c-1.427.314-2.024,1.976-2.363,3.395q-.984,4.209-1.613,8.467c.282-1.476-2.419-1.782-3.113-.468s-.145,2.935.306,4.371a21.772,21.772,0,0,1-1.282,15.974c-3.032-.4-4.032-4.29-3.992-7.354A83.646,83.646,0,0,1-72.75,86.917a42.423,42.423,0,0,1,4.2-13.41c2.282-4.113,5.951-7.653,10.483-8.87a21.023,21.023,0,0,0,3.854-1.081,3.556,3.556,0,0,0,2.193-3.177c-2.572.161-5.846-.113-6.7-2.54-.573-1.613.218-3.75-1.016-4.943s-3.492-.177-4.935,1.048-3.387,2.532-4.919,1.5l-.6-5.048a2.887,2.887,0,0,0-.468-1.5c-.879-1.129-2.758-.387-3.629.742s-1.411,2.621-2.677,3.29c-1.516.806-3.33.048-4.992-.387s-3.911-.226-4.419,1.4,1.056,2.992,2.29,4.1A17.063,17.063,0,0,1-78.758,67.6c-1.613.435-3.226-.121-4.838-.508-1.863-.435-4.838-.589-5.411,1.774s1.774,2.911,3.121,4.169C-82.241,76.418-80.572,81.78-80,86.57c.734,6.1,0,12.281.508,18.41a46.585,46.585,0,0,0,17.015,32.005,18.232,18.232,0,0,0-5.379.435c-5.048,1.056-13.112,5.846-13.112,5.846s-3.4,2.089-3.734,3.613h-.056a.459.459,0,0,0,0,.113.806.806,0,0,0,0,.113h.056c.331,1.524,3.734,3.621,3.734,3.621s8,4.79,13.047,5.846a18.74,18.74,0,0,0,5.2.444,46.56,46.56,0,0,0-16.837,31.86c-.5,6.12.226,12.313-.508,18.41-.573,4.79-2.242,10.152-5.887,13.531-1.347,1.258-3.693,1.9-3.121,4.169s3.548,2.209,5.411,1.766c1.613-.379,3.282-.943,4.838-.5a17.087,17.087,0,0,1-5.322,9.556c-1.234,1.113-2.79,2.516-2.29,4.1s2.766,1.839,4.419,1.4,3.476-1.177,4.992-.387c1.266.661,1.806,2.153,2.677,3.282s2.75,1.879,3.629.75a2.911,2.911,0,0,0,.468-1.5q.29-2.516.6-5.048c1.532-1.032,3.516.3,4.919,1.5s3.6,2.33,4.935,1.048.444-3.322,1.016-4.943c.855-2.419,4.129-2.7,6.7-2.54a3.548,3.548,0,0,0-2.209-3.072,21.7,21.7,0,0,0-3.79-1.089c-4.54-1.21-8.2-4.758-10.483-8.87s-3.363-8.781-4.2-13.41A83.727,83.727,0,0,1-74.3,192.384c0-3.064.96-6.959,3.992-7.354a21.772,21.772,0,0,1,1.274,15.983c-.452,1.435-1.032,3.048-.306,4.371s3.395,1.008,3.113-.468q.661,4.258,1.613,8.467c.339,1.419.935,3.08,2.363,3.395a2.718,2.718,0,0,0,2.83-1.661,7.935,7.935,0,0,0,.508-3.484l5.9,9.088c1.008,1.548,2.693,3.314,4.363,2.524,1.072-.5,1.435-1.839,1.613-3.016a28.909,28.909,0,0,0-.806-11.838c1.532,1.4,4.274-.355,4.33-2.419s-1.613-3.822-3.435-4.838c-1.669-.952-3.855-1.96-3.863-3.887a3.226,3.226,0,0,1,2.419-2.822,15.055,15.055,0,0,1,3.911-.46,1.976,1.976,0,0,0,1.113-.323c.71-.564.4-1.71-.1-2.476-2.145-3.274-6.241-4.524-9.806-6.169s-7.257-4.693-6.87-8.6a9.717,9.717,0,0,1,2.274-4.79,36.965,36.965,0,0,1,15.692-11.854c3.048-1.21,7.257-1.613,8.935,1.169-3.532,1.766-7.112,3.572-10.039,6.225s-5.161,6.314-5.225,10.265c0,2.056.806,4.427,2.782,5.032,1.693.516,3.484-.508,4.75-1.742s2.3-2.758,3.83-3.653a11.491,11.491,0,0,0-.185,9.967,4.838,4.838,0,0,0,1.855,2.258c1.742.984,4.032,0,5.217-1.613s1.443-3.693,1.693-5.645a6.274,6.274,0,0,0,6.37,2.347c2.322-4.427-2.935-9.975-.96-14.563a7.015,7.015,0,0,1,3.226-3.226c4.564-2.419,10.209-1.46,15.047.363,4.556,1.718,10.427,5.959,14.87,9.62,3.661,4.435,7.9,10.306,9.62,14.862,1.822,4.838,2.806,10.483.355,15.047a6.983,6.983,0,0,1-3.226,3.226c-4.588,1.968-10.144-3.282-14.563-.96a6.266,6.266,0,0,0,2.347,6.37A12.1,12.1,0,0,0-1.119,216.8c-1.613,1.153-2.613,3.476-1.613,5.209a4.79,4.79,0,0,0,2.258,1.855,11.467,11.467,0,0,0,9.967-.177c-.9,1.524-2.419,2.564-3.653,3.83s-2.258,3.056-1.742,4.75c.6,1.968,2.976,2.814,5.032,2.782,3.951-.064,7.612-2.306,10.265-5.225s4.451-6.508,6.217-10.048c2.814,1.685,2.419,5.895,1.177,8.943a37.037,37.037,0,0,1-11.91,15.6,9.677,9.677,0,0,1-4.782,2.274c-3.9.371-6.951-3.322-8.6-6.878s-2.895-7.653-6.177-9.806c-.758-.492-1.9-.806-2.468-.1a1.943,1.943,0,0,0-.323,1.121,15.829,15.829,0,0,1-.46,3.911,3.313,3.313,0,0,1-2.822,2.419c-1.927,0-2.943-2.193-3.895-3.863-1.024-1.814-2.766-3.492-4.838-3.435s-3.846,2.79-2.419,4.33a28.86,28.86,0,0,0-11.83-.806c-1.177.161-2.516.524-3.024,1.613-.806,1.669.984,3.355,2.532,4.354l9.088,5.9a8.064,8.064,0,0,0-3.484.508,2.742,2.742,0,0,0-1.7,2.806c.314,1.427,1.984,2.024,3.4,2.355,2.8.653,5.645,1.21,8.467,1.653-1.484-.282-1.782,2.419-.468,3.113s2.935.137,4.371-.306a21.821,21.821,0,0,1,15.966,1.274c-.387,3.04-4.29,4.032-7.346,3.992a83.635,83.635,0,0,1-14.652-1.524,42.167,42.167,0,0,1-13.41-4.209c-4.113-2.29-7.653-5.943-8.87-10.483a20.78,20.78,0,0,0-1.089-3.846,3.548,3.548,0,0,0-3.064-2.209c.161,2.572-.113,5.838-2.54,6.7-1.613.564-3.75-.218-4.943,1.016s-.161,3.524,1.048,4.927,2.532,3.387,1.5,4.927l-5.056.6a2.952,2.952,0,0,0-1.492.46c-1.129.887-.387,2.758.742,3.629s2.621,1.411,3.282,2.677c.806,1.524.048,3.338-.387,4.992s-.226,3.911,1.411,4.427,2.984-1.056,4.1-2.29a17.12,17.12,0,0,1,9.556-5.33c.435,1.613-.129,3.274-.508,4.879-.435,1.863-.589,4.838,1.766,5.411s2.919-1.766,4.169-3.121c3.387-3.637,8.741-5.306,13.531-5.879,6.1-.734,12.289,0,18.41-.516A46.544,46.544,0,0,0,29.83,248.669a14.888,14.888,0,0,0,.1,7.088c1.056,5.04,5.846,13.047,5.846,13.047s2.1,3.4,3.621,3.725v.065a.82.82,0,0,0,.113,0,.46.46,0,0,0,.113,0v-.064c1.524-.306,3.588-3.7,3.588-3.7s4.79-8.007,5.846-13.047a14.784,14.784,0,0,0,.1-7.088A46.561,46.561,0,0,0,81.422,266c6.12.508,12.313-.218,18.41.516,4.79.573,10.152,2.242,13.531,5.879,1.25,1.355,1.895,3.693,4.169,3.121s2.209-3.548,1.766-5.411c-.379-1.613-.943-3.282-.5-4.879a17.151,17.151,0,0,1,9.556,5.33c1.113,1.234,2.516,2.79,4.1,2.29s1.839-2.766,1.4-4.427-1.177-3.467-.387-4.991c.661-1.266,2.153-1.8,3.282-2.677s1.871-2.742.75-3.629a3.007,3.007,0,0,0-1.5-.46l-5.048-.6c-1.032-1.54.3-3.516,1.5-4.927s2.33-3.6,1.048-4.927-3.322-.452-4.943-1.016c-2.419-.863-2.7-4.129-2.54-6.7a3.548,3.548,0,0,0-3.072,2.21,21.424,21.424,0,0,0-1.089,3.846c-1.21,4.548-4.758,8.2-8.87,10.483s-8.773,3.371-13.4,4.209a83.725,83.725,0,0,1-14.644,1.524c-3.056,0-6.959-.952-7.346-3.992A21.845,21.845,0,0,1,93.574,255.5c1.435.443,3.048,1.032,4.363.306s1.016-3.395-.46-3.113q4.258-.669,8.459-1.653c1.427-.331,3.088-.927,3.4-2.355a2.718,2.718,0,0,0-1.669-2.838,8.063,8.063,0,0,0-3.476-.508l9.088-5.9c1.548-1,3.314-2.685,2.524-4.354-.508-1.081-1.839-1.443-3.016-1.613a28.908,28.908,0,0,0-11.838.806c1.4-1.54-.355-4.274-2.419-4.33s-3.822,1.613-4.838,3.435c-.952,1.669-1.96,3.855-3.887,3.863a3.243,3.243,0,0,1-2.822-2.419,15.1,15.1,0,0,1-.46-3.911,2,2,0,0,0-.323-1.121c-.564-.71-1.718-.4-2.476.1-3.274,2.153-4.524,6.249-6.169,9.806s-4.693,7.257-8.6,6.878a9.717,9.717,0,0,1-4.782-2.258,36.948,36.948,0,0,1-11.854-15.692c-1.21-3.048-1.613-7.257,1.169-8.943,1.766,3.54,3.564,7.12,6.217,10.048s6.322,5.161,10.265,5.225c2.064,0,4.435-.806,5.032-2.782.524-1.693-.5-3.484-1.734-4.75s-2.758-2.306-3.653-3.83a11.467,11.467,0,0,0,9.967.177,4.838,4.838,0,0,0,2.258-1.855c.984-1.734,0-4.032-1.613-5.209s-3.7-1.443-5.645-1.693a6.282,6.282,0,0,0,2.347-6.37c-4.427-2.322-9.975,2.927-14.571.96a7.056,7.056,0,0,1-3.226-3.226c-2.419-4.556-1.46-10.2.363-15.047,1.718-4.556,5.959-10.427,9.62-14.862,4.435-3.661,10.306-7.9,14.862-9.62,4.838-1.822,10.483-2.806,15.047-.363a7.032,7.032,0,0,1,3.226,3.226c1.968,4.588-3.282,10.136-.96,14.563a6.29,6.29,0,0,0,6.37-2.347,12.1,12.1,0,0,0,1.693,5.645c1.153,1.613,3.475,2.621,5.209,1.613a4.838,4.838,0,0,0,1.855-2.258,11.467,11.467,0,0,0-.177-9.967c1.524.9,2.564,2.419,3.83,3.653s3.048,2.258,4.742,1.742c1.976-.6,2.822-2.976,2.79-5.032-.065-3.951-2.306-7.612-5.233-10.265s-6.507-4.459-10.039-6.225c1.685-2.806,5.887-2.419,8.943-1.169a37.013,37.013,0,0,1,15.692,11.854,9.79,9.79,0,0,1,2.274,4.79c.363,3.9-3.322,6.951-6.878,8.6s-7.653,2.895-9.806,6.169c-.5.766-.806,1.911-.1,2.476a2,2,0,0,0,1.121.323,15.1,15.1,0,0,1,3.911.46,3.313,3.313,0,0,1,2.419,2.822c0,1.927-2.193,2.935-3.871,3.887-1.806,1.032-3.484,2.774-3.427,4.838s2.79,3.838,4.33,2.419a29.03,29.03,0,0,0-.806,11.838c.169,1.177.532,2.516,1.613,3.016,1.669.806,3.355-.976,4.354-2.524l5.9-9.088a8.065,8.065,0,0,0,.508,3.484,2.726,2.726,0,0,0,2.838,1.661c1.419-.314,2.024-1.976,2.355-3.395q.984-4.209,1.613-8.467c-.282,1.476,2.419,1.782,3.113.468s.137-2.935-.306-4.371a21.845,21.845,0,0,1,1.274-15.974c3.04.4,4.032,4.29,4.032,7.354a84.5,84.5,0,0,1-1.524,14.652,42.231,42.231,0,0,1-4.209,13.41c-2.29,4.113-5.943,7.653-10.483,8.87a21.423,21.423,0,0,0-3.846,1.089,3.548,3.548,0,0,0-2.209,3.072c2.564-.161,5.838.113,6.693,2.54.573,1.613-.21,3.75,1.024,4.943s3.524.153,4.927-1.048,3.387-2.532,4.927-1.5c.2,1.685.4,3.371.6,5.048a2.984,2.984,0,0,0,.46,1.5c.887,1.129,2.758.387,3.629-.75s1.411-2.621,2.677-3.282c1.524-.806,3.338-.048,4.991.387s3.911.226,4.427-1.4-1.056-2.992-2.3-4.1a17.184,17.184,0,0,1-5.322-9.556c1.613-.444,3.274.121,4.879.5,1.863.444,4.838.6,5.411-1.766S166.3,222.059,164.979,220.817ZM39.4,50.041h.226c2.3,0,5.072-.121,7.112-1.443a40.15,40.15,0,0,0-5.54,13.1H37.829a40.319,40.319,0,0,0-5.54-13.1C34.346,49.92,37.1,50.041,39.4,50.041Zm.226,193.79H39.4c-2.306,0-5.08.121-7.112,1.451a40.593,40.593,0,0,0,5.064-11.209h4.314a40.859,40.859,0,0,0,5.072,11.209C44.7,243.928,41.926,243.831,39.627,243.831Zm75.711-96.161c-1.508,0-3.024,0-4.532.064a72.44,72.44,0,0,0-14.12,1.9,64.51,64.51,0,0,0-16.934,7.032c-4.54,2.637-10.136,7.257-14.765,11.483l-.1-.1c-.677.677-1.4,1.419-2.145,2.2s-1.524,1.468-2.2,2.145l.1.1c-4.242,4.629-8.87,10.225-11.475,14.765a64.511,64.511,0,0,0-7.032,16.934,72.437,72.437,0,0,0-1.9,14.12c-.073,1.718-.1,3.435-.056,5.153H38.813c0-1.718,0-3.435-.065-5.153a72.42,72.42,0,0,0-1.887-14.12,65.075,65.075,0,0,0-7.032-16.934c-2.637-4.54-7.257-10.136-11.483-14.765l.1-.1c-.677-.677-1.419-1.4-2.193-2.145s-1.468-1.524-2.153-2.2a1.026,1.026,0,0,1-.089.1c-4.629-4.25-10.225-8.87-14.765-11.483a64.64,64.64,0,0,0-16.934-7.032,72.427,72.427,0,0,0-14.087-1.919,54.835,54.835,0,0,0-13,.7A39.286,39.286,0,0,0-56.695,152.9a16.475,16.475,0,0,0,.766-5.8h0v-.226h0a16.055,16.055,0,0,0-.806-5.975,39.431,39.431,0,0,0,11.951,4.548,54.834,54.834,0,0,0,13,.693,72.423,72.423,0,0,0,14.128-1.9A64.913,64.913,0,0,0-.724,137.219c4.54-2.637,10.136-7.257,14.765-11.483a.557.557,0,0,1,.089.1q1.032-1.024,2.153-2.2c.806-.742,1.516-1.468,2.193-2.153l-.1-.089c4.25-4.629,8.87-10.225,11.483-14.765A65.2,65.2,0,0,0,36.894,89.7a72.422,72.422,0,0,0,1.887-14.12c.048-1.089.089-2.177.1-3.226h1.339c0,1.089.04,2.177.089,3.226a72.437,72.437,0,0,0,1.863,14.152A64.639,64.639,0,0,0,49.2,106.665c2.637,4.54,7.257,10.136,11.475,14.765l-.1.089c.677.685,1.419,1.411,2.2,2.153s1.468,1.516,2.145,2.2l.1-.1c4.629,4.25,10.225,8.87,14.765,11.483a64.8,64.8,0,0,0,16.934,7.032,72.42,72.42,0,0,0,14.12,1.887c1.508.073,3.024.089,4.532.073Zm18.8-.653v.113h0a18.546,18.546,0,0,0,.589,5.233,39.513,39.513,0,0,0-8.741-3.411V144.92a39.577,39.577,0,0,0,8.79-3.443,18.023,18.023,0,0,0-.637,5.395h0ZM25.564,146.9c-.161-2.419-2.976-6.346-8.564-5.33-6.088,1.1-27.167,4.032-27.167,4.032s-1.766.129-1.984,1.29h0a.274.274,0,0,1,0,.226h0c.218,1.169,1.984,1.29,1.984,1.29S10.912,151.355,17,152.444c5.588,1.016,8.4-2.911,8.564-5.338h0v-.226Zm64.8,0c-.226-1.161-1.984-1.29-1.984-1.29s-21.079-2.935-27.175-4.032c-5.58-1.016-8.394,2.9-8.556,5.33h0a.475.475,0,0,0,0,.113.629.629,0,0,0,0,.113h0c.161,2.419,2.976,6.346,8.556,5.338,6.1-1.1,27.175-4.032,27.175-4.032s1.758-.121,1.984-1.29h.04a.274.274,0,0,1,0-.226Zm-50.738,15.41H39.4c-2.419.161-6.346,2.976-5.338,8.556,1.1,6.1,4.032,27.175,4.032,27.175s.121,1.758,1.29,1.984h0a.274.274,0,0,1,.226,0h0c1.161-.226,1.29-1.984,1.29-1.984s2.935-21.079,4.032-27.175C45.974,165.289,42.055,162.475,39.627,162.314Zm-.371-21.426a6.653,6.653,0,1,0,4.709,1.946,6.661,6.661,0,0,0-4.709-1.946Z" transform="translate(-12.726 -34.728)"/></g><path class="h" d="M7,237l25-25H172.663l25.095,25.095Z" transform="translate(-1.355 -41.047)"/><path class="h" d="M197.758,6.906l-25,25H32.062L7,6.85Z" transform="translate(-1.355 -1.326)"/></g></svg>