<svg xmlns="http://www.w3.org/2000/svg" xmlns:xlink="http://www.w3.org/1999/xlink" width="1013.385" height="1013.385" viewBox="0 0 1013.385 1013.385"><defs><style>.a{fill:none;}.b{opacity:0.334;}.c{fill:#e20613;}.d{clip-path:url(#a);}.e{fill:#f5e5d7;}</style><clipPath id="a"><rect class="a" width="741.849" height="741.849" transform="translate(0)"/></clipPath></defs><g class="b" transform="translate(348.945 -12.69) rotate(30)"><rect class="c" width="741.849" height="741.849" transform="translate(25.38)"/><g class="d" transform="translate(25.38)"><path class="e" d="M773.988,248.717c-57.748-5.25-115.526,8.216-173.512,8.9S478.691,242.1,446.243,194.024c-19.131-28.3-24.915-64.3-45.647-91.442C359.843,49.193,279.909,49.875,214.122,63.074S76.914,96.234,16.912,66.218A257.509,257.509,0,0,0-13.312,285.437C29.1,250.793,73,216.417,124.549,198.236s112.709-17.8,157.2,14.178c36.245,26.012,56.354,68.574,87.053,101.052a209.342,209.342,0,0,0,169.864,63.858c93.074-8.9,188.1-79.638,271.42-37.194C844.016,357.392,867,390.552,898.65,411.7c80.943,54.041,99.035-6.525,57.986-66.35C918.374,289.737,838.825,254.59,773.988,248.717Z" transform="translate(-49.864 109.281)"/></g></g></svg>